<svg version="1.1" xmlns="http://www.w3.org/2000/svg" xmlns:xlink="http://www.w3.org/1999/xlink" width="523.88175" height="324.33577" viewBox="0,0,523.88175,324.33577"><g transform="translate(-110.88512,-1.37044)"><g data-paper-data="{&quot;isPaintingLayer&quot;:true}" fill-rule="nonzero" stroke-linecap="butt" stroke-linejoin="miter" stroke-dasharray="" stroke-dashoffset="0" style="mix-blend-mode: normal"><text transform="translate(303.24665,215.54638) scale(1.59625,1.59625) skewX(-18.75508)" font-size="40" xml:space="preserve" fill="#547b31" fill-rule="nonzero" stroke="#ffffff" stroke-width="4" stroke-linecap="butt" stroke-linejoin="miter" stroke-miterlimit="10" stroke-dasharray="" stroke-dashoffset="0" font-family="Sans Serif" font-weight="normal" text-anchor="start" style="mix-blend-mode: normal"><tspan x="0" dy="0">Perwalian</tspan></text><text transform="translate(303.24665,215.54637) scale(1.59625,1.59625) skewX(-18.75508)" font-size="40" xml:space="preserve" fill="#547b31" fill-rule="nonzero" stroke="#693030" stroke-width="2" stroke-linecap="butt" stroke-linejoin="miter" stroke-miterlimit="10" stroke-dasharray="" stroke-dashoffset="0" font-family="Sans Serif" font-weight="normal" text-anchor="start" style="mix-blend-mode: normal"><tspan x="0" dy="0">Perwalian</tspan></text><text transform="translate(163.0723,318.60703) scale(0.64538,0.64538) skewX(-1.40863)" font-size="40" xml:space="preserve" fill="#547b31" fill-rule="nonzero" stroke="#693030" stroke-width="2" stroke-linecap="butt" stroke-linejoin="miter" stroke-miterlimit="10" stroke-dasharray="" stroke-dashoffset="0" font-family="Serif" font-weight="normal" text-anchor="start" style="mix-blend-mode: normal"><tspan x="0" dy="0">with Mr. Jaka (ato guru lain)</tspan></text><g><path d="M153.57697,43.14184c0,-0.37534 -0.17164,-0.66769 -0.5168,-0.87705c-0.34516,-0.20936 -0.74879,-0.36025 -1.21467,-0.45078c-0.4489,-0.10374 -0.92232,-0.17164 -1.41649,-0.20182c-0.47908,-0.03018 -0.84687,-0.04526 -1.1015,-0.04526c-1.64848,0 -3.3064,0.09808 -4.96996,0.29235c-1.66357,0.18107 -3.32148,0.26971 -4.96996,0.26971c-1.40894,0 -2.79525,-0.16409 -4.16081,-0.49417c-1.34859,-0.34516 -2.56326,-0.8695 -3.64213,-1.57492c-1.06378,-0.70353 -1.92008,-1.62585 -2.56325,-2.76507c-0.64506,-1.13922 -0.96759,-2.5029 -0.96759,-4.09291c0,-1.54474 0.30743,-2.94615 0.92232,-4.20608c0.61488,-1.25805 1.43912,-2.34446 2.47273,-3.25923c1.05058,-0.92986 2.25015,-1.63528 3.59874,-2.11436c1.34859,-0.49417 2.76507,-0.74125 4.24946,-0.74125c2.14453,0 4.25889,0.2169 6.34307,0.65071c2.09738,0.42061 4.21928,0.62997 6.36381,0.62997c2.81789,0 5.5905,-0.23954 8.31973,-0.71862c2.74433,-0.49605 5.4943,-0.74314 8.25372,-0.74314c1.72392,0 3.34977,0.15844 4.87943,0.47342c1.54474,0.29801 2.90842,0.8167 4.09291,1.5504c1.19958,0.73559 2.15019,1.74656 2.85561,3.03667c0.71862,1.28823 1.07887,2.91596 1.07887,4.87943c0,1.90311 -0.32253,3.54593 -0.9657,4.9247c-0.64506,1.37876 -1.46175,2.66887 -2.45197,3.86846c-0.97513,1.19958 -2.01627,2.39727 -3.12532,3.59686c-1.10905,1.19958 -2.15963,2.57268 -3.14796,4.11554c-0.97513,1.52966 -1.78428,3.33657 -2.42934,5.42075c-0.64506,2.08229 -0.96758,4.63235 -0.96758,7.6445c0,1.40894 0.04526,2.80468 0.1358,4.18344c0.08865,1.37876 0.13392,2.78016 0.13392,4.20419c0,2.14453 -0.21691,4.16836 -0.65072,6.07335c-0.42061,1.90311 -1.24485,3.74775 -2.4746,5.53014c-0.61488,0.91477 -1.43158,1.85218 -2.45009,2.81222c-1.00531,0.94496 -2.09172,1.822 -3.26112,2.63115c-1.1694,0.79406 -2.38408,1.44667 -3.64401,1.95592c-1.25805,0.52434 -2.435,0.78652 -3.53084,0.78652c-2.03891,0 -3.94957,-0.35082 -5.73385,-1.05624c-1.7692,-0.70542 -3.29884,-1.68621 -4.58707,-2.94614c-1.29012,-1.25993 -2.30108,-2.75753 -3.03667,-4.49654c-0.73371,-1.7541 -1.10151,-3.68173 -1.10151,-5.781c0,-3.49312 0.79407,-6.88062 2.38408,-10.16438c1.58812,-3.28187 3.34976,-6.33363 5.28494,-9.15152c1.94838,-2.83297 3.71757,-5.39811 5.30758,-7.69165c1.60322,-2.30862 2.40482,-4.29473 2.40482,-5.95829zM206.53017,22.52074c3.68928,0 7.45211,0.381 11.28851,1.14677c3.83828,0.76388 7.31631,1.99364 10.43598,3.68739c3.13286,1.67866 5.66594,3.86092 7.59923,6.54489c1.95026,2.66699 2.82732,5.86775 2.63116,9.6023c-0.05847,2.03891 -0.44135,3.79302 -1.14677,5.26232c-0.70353,1.46741 -1.47685,2.72735 -2.31618,3.77792c-0.82424,1.0336 -1.55795,1.91065 -2.203,2.62927c-0.64506,0.70542 -0.96759,1.32784 -0.96759,1.86727c0,0.49417 0.61488,1.0336 1.84464,1.6183c1.22976,0.5847 2.59343,1.37311 4.09291,2.36144c1.51268,0.97513 2.88578,2.23506 4.11554,3.77792c1.22787,1.52966 1.84276,3.46294 1.84276,5.80175c0,3.86846 -1.10905,7.09186 -3.32714,9.67021c-2.20489,2.57835 -5.12085,4.65498 -8.74788,6.2299c-3.62892,1.55795 -7.77464,2.67642 -12.43527,3.34977c-4.66252,0.67523 -9.48348,1.01286 -14.46099,1.01286c-1.58812,0 -3.59685,-0.17353 -6.02619,-0.51869c-2.42934,-0.32819 -4.78324,-0.93552 -7.06169,-1.82012c-2.26336,-0.89969 -4.21174,-2.09927 -5.84702,-3.59874c-1.6183,-1.51457 -2.42745,-3.40258 -2.42745,-5.66594c0,-2.21998 0.30743,-4.22871 0.92232,-6.02808c0.613,-1.81257 1.30332,-3.73266 2.0672,-5.75648c0.76577,-2.03891 1.45421,-4.36262 2.06909,-6.97115c0.61488,-2.60852 0.92232,-5.81683 0.92232,-9.62494c0,-2.203 -0.18672,-4.22683 -0.56207,-6.07147c-0.36025,-1.84464 -0.77143,-3.51575 -1.2373,-5.01522c-0.46399,-1.51268 -0.89969,-2.93105 -1.30332,-4.24946c-0.39043,-1.31841 -0.5847,-2.59343 -0.5847,-3.82319c0,-1.10905 0.41118,-2.21056 1.2373,-3.30451c0.83933,-1.11094 2.11247,-2.1068 3.82131,-2.9914c1.72581,-0.89969 3.89109,-1.6051 6.49961,-2.11436c2.60852,-0.52434 5.69612,-0.78652 9.26469,-0.78652zM212.42244,38.26241c-0.91477,0 -1.69375,0.20182 -2.33881,0.60734c-0.64506,0.38855 -1.1694,0.86196 -1.57492,1.41648c-0.40363,0.55452 -0.68089,1.12414 -0.83178,1.70884c-0.14901,0.5847 -0.22445,1.08641 -0.22445,1.50702c0,2.09738 0.30744,3.6874 0.92232,4.76626c0.61488,1.06566 1.65602,1.59755 3.12532,1.59755c0.67523,0 1.40894,-0.1358 2.20489,-0.40552c0.80915,-0.28481 1.53531,-0.70352 2.18037,-1.25993c0.64506,-0.55452 1.17694,-1.24296 1.59755,-2.0672c0.43381,-0.82613 0.65072,-1.79183 0.65072,-2.90088c0,-0.67523 -0.17164,-1.3052 -0.5168,-1.8899c-0.33007,-0.5847 -0.77143,-1.1015 -1.32595,-1.55229c-0.55452,-0.46399 -1.16941,-0.83179 -1.84464,-1.10151c-0.67523,-0.28481 -1.34859,-0.42626 -2.02382,-0.42626zM207.81274,66.0791c0,1.40894 0.17918,2.43689 0.53943,3.08006c0.37534,0.64506 0.77898,0.96759 1.21467,0.96759c0.55452,0 1.25805,-0.03018 2.11436,-0.09053c0.86951,-0.05847 1.71638,-0.20936 2.54062,-0.4489c0.82424,-0.25463 1.52966,-0.60734 2.11247,-1.05624c0.5847,-0.46588 0.87705,-1.06566 0.87705,-1.79937c0,-0.99022 -0.27726,-1.79182 -0.83178,-2.4067c-0.55452,-0.61488 -1.21279,-1.10151 -1.97856,-1.46175c-0.76388,-0.37534 -1.59566,-0.62243 -2.49535,-0.74126c-0.8846,-0.12071 -1.69375,-0.18107 -2.42934,-0.18107c-0.73371,0 -1.1845,0.20182 -1.34859,0.60734c-0.15089,0.39043 -0.25462,1.56738 -0.31498,3.53084zM275.98891,22.60939c2.08229,0 4.37017,0.12072 6.85798,0.36026c2.48781,0.23954 4.84925,0.68278 7.08432,1.32784c2.24827,0.64317 4.18156,1.53531 5.80175,2.67454c1.63339,1.14111 2.60098,2.57268 2.90088,4.29661c0.31499,1.58812 0.50171,3.49312 0.56207,5.71121c0.06036,2.203 0.39608,4.78324 1.01096,7.73503c0.42061,2.20489 1.18449,4.2438 2.29354,6.11673c1.11094,1.87482 2.22752,3.74963 3.35166,5.62256c1.13922,1.87482 2.137,3.82319 2.99141,5.84702c0.86951,2.02382 1.30332,4.26455 1.30332,6.72406c0,3.01216 -0.27726,5.7942 -0.83178,8.34237c-0.55452,2.54816 -1.50702,4.71533 -2.85561,6.49962c-1.35047,1.7692 -3.11778,3.16305 -5.30758,4.18156c-2.17283,1.00531 -4.91715,1.50702 -8.23109,1.50702c-1.84276,0 -3.45539,-0.30744 -4.83416,-0.92232c-1.37876,-0.61488 -2.53308,-1.40894 -3.46295,-2.38218c-0.91477,-0.99022 -1.59001,-2.09172 -2.02382,-3.30639c-0.42061,-1.22976 -0.62996,-2.45952 -0.62996,-3.68739c0,-0.67523 0.04526,-1.41083 0.1358,-2.20489c0.08865,-0.80915 0.03583,-1.56549 -0.15844,-2.27091c-0.17918,-0.70542 -0.56207,-1.30332 -1.14677,-1.79937c-0.56961,-0.49417 -1.49947,-0.74125 -2.7877,-0.74125c-2.6387,0 -4.34754,0.46399 -5.1284,1.39385c-0.76388,0.91477 -1.14677,2.04645 -1.14677,3.39504c0,1.90499 -0.27726,3.67419 -0.83178,5.30758c-0.55452,1.6183 -1.31086,3.01405 -2.27091,4.18345c-0.94496,1.1694 -2.06154,2.08983 -3.35166,2.76506c-1.28823,0.67523 -2.63682,1.01286 -4.04765,1.01286c-5.33587,0 -9.40614,-1.0883 -12.21082,-3.26112c-2.7877,-2.1898 -4.18156,-5.92245 -4.18156,-11.19986c0,-1.34859 0.27726,-2.69717 0.83178,-4.04765l0.26971,-0.381c0.67523,-1.41083 1.42403,-2.9386 2.24827,-4.58896c0.83933,-1.66357 1.65791,-3.33468 2.45197,-5.01334c0.79406,-1.69564 1.52966,-3.40447 2.203,-5.1284c0.69032,-1.72392 1.24485,-3.3196 1.66357,-4.78889c0.55641,-2.02382 0.98268,-3.92881 1.28257,-5.7131c0.31499,-1.7824 0.60733,-3.52895 0.87705,-5.23968c0.28481,-1.72392 0.62243,-3.4554 1.01286,-5.19441c0.40363,-1.75411 1.00342,-3.58177 1.79748,-5.48676c0.67523,-1.66357 1.61264,-2.99895 2.81222,-4.00237c1.19958,-1.02039 2.54817,-1.79183 4.04765,-2.31618c1.51457,-0.52434 3.09515,-0.87705 4.74362,-1.05623c1.66545,-0.18107 3.29884,-0.27161 4.90395,-0.27161zM340.17969,68.10293c-0.67523,0 -1.19958,0.18672 -1.57303,0.56207c-0.36025,0.36025 -0.62243,0.8167 -0.78841,1.37122c-0.14901,0.55452 -0.23954,1.13922 -0.26971,1.7541c-0.03018,0.61488 -0.04527,1.19958 -0.04527,1.7541c0,1.4693 0.10562,2.92351 0.31499,4.36263c0.22634,1.43912 0.33762,2.8707 0.33762,4.29473c0,3.13475 -0.86196,5.42074 -2.58588,6.85987c-1.72392,1.43912 -4.08536,2.15773 -7.08432,2.15773c-2.09738,0 -4.0401,-0.35082 -5.82438,-1.05624c-1.7692,-0.70353 -3.29696,-1.68621 -4.58707,-2.94614c-1.28823,-1.25805 -2.30862,-2.76506 -3.05742,-4.51917c-0.73559,-1.7541 -1.10339,-3.67419 -1.10339,-5.75648c0,-0.97513 0.09809,-1.92763 0.29235,-2.85749c0.24143,-1.7824 0.60733,-3.48557 1.10338,-5.10387c0.49417,-1.63339 0.98079,-3.2913 1.46175,-4.96996c0.49417,-1.69375 0.92044,-3.41013 1.28069,-5.14914c0.37534,-1.7541 0.56207,-3.61384 0.56207,-5.5773c0,-1.97855 -0.21691,-3.77792 -0.65072,-5.39623c-0.42061,-1.63528 -0.87705,-3.23095 -1.37311,-4.79078c-0.47908,-1.55983 -0.93553,-3.1555 -1.37122,-4.79077c-0.43381,-1.63339 -0.6526,-3.40259 -0.6526,-5.30569c0,-2.26336 0.44324,-4.10046 1.32784,-5.5094c0.89969,-1.42403 2.05401,-2.51988 3.46295,-3.28376c1.40894,-0.76388 2.96123,-1.28257 4.65498,-1.55229c1.69375,-0.28481 3.36486,-0.42627 5.01522,-0.42627c1.54286,0 2.89333,0.32253 4.04765,0.9657c1.1694,0.64506 2.16528,1.50702 2.98952,2.58778c0.83933,1.07887 1.4693,2.32372 1.8899,3.73266c0.43381,1.40894 0.6526,2.84806 0.6526,4.31736c0,1.22976 -0.24897,2.58589 -0.74314,4.07028c-0.47908,1.4693 -0.71862,2.81788 -0.71862,4.04764c0,0.61488 0.20936,1.38632 0.62808,2.31618c0.43569,0.91477 1.11094,1.37121 2.02382,1.37121c1.1694,0 2.31051,-0.32252 3.41956,-0.96569c1.10905,-0.64506 2.07664,-1.50702 2.90088,-2.58778c0.82424,-1.07887 1.48439,-2.30862 1.97855,-3.68739c0.49417,-1.37876 0.74125,-2.77262 0.74125,-4.18156c0,-1.90499 0.18107,-3.79301 0.54132,-5.66783c0.37346,-1.87482 0.97325,-3.54593 1.79748,-5.01523c0.83933,-1.48439 1.92008,-2.68208 3.23849,-3.59686c1.32029,-0.92986 2.93106,-1.39574 4.83605,-1.39574c1.7824,0 3.47049,0.29235 5.05861,0.87705c1.59001,0.5847 2.98386,1.41838 4.18344,2.49724c1.19958,1.07887 2.15019,2.38407 2.85561,3.91184c0.70542,1.52966 1.05624,3.21585 1.05624,5.0605c0,1.90311 -0.42627,3.65721 -1.28069,5.26231c-0.85441,1.58812 -1.91254,3.08006 -3.17059,4.4758c-1.25993,1.37876 -2.63115,2.69718 -4.11554,3.95711c-1.4693,1.24485 -2.83297,2.48026 -4.09291,3.71002c-1.25993,1.22976 -2.31618,2.47461 -3.17059,3.73266c-0.85441,1.25993 -1.28257,2.56325 -1.28257,3.91373c0,1.04869 0.59225,2.03891 1.77674,2.96877c1.19958,0.91289 2.63116,1.82012 4.29473,2.7198c1.66545,0.8846 3.32148,1.79183 4.96996,2.7217c1.66357,0.91477 2.95368,1.9182 3.86846,3.01404c1.34859,1.66357 2.48027,3.5365 3.39504,5.62068c0.92986,2.08418 1.39385,4.20608 1.39385,6.36381c0,1.40894 -0.24708,2.75941 -0.74125,4.04764c-0.47908,1.29012 -1.27503,2.41425 -2.38408,3.3743c-1.10905,0.94496 -2.54062,1.69374 -4.29472,2.24827c-1.73901,0.55452 -3.86846,0.83178 -6.38645,0.83178c-2.45952,0 -4.54935,-0.39608 -6.27327,-1.19203c-1.71072,-0.80915 -3.13476,-1.84276 -4.27398,-3.10269c-1.13922,-1.25993 -2.09172,-2.66888 -2.85561,-4.22683c-0.76388,-1.57492 -1.43912,-3.12721 -2.02382,-4.65498c-0.5847,-1.52966 -1.1694,-2.99895 -1.7541,-4.40789c-0.5847,-1.42403 -1.27503,-2.56515 -2.06909,-3.41956c-0.37534,-0.43381 -0.71861,-0.66581 -1.0336,-0.69599c-0.2999,-0.03018 -0.53944,-0.04526 -0.7205,-0.04526zM411.7509,67.18061c0,-1.90311 -0.75634,-3.48558 -2.27091,-4.74552c-1.49947,-1.25805 -3.38749,-2.38973 -5.66594,-3.39504c-2.26336,-1.01851 -4.71533,-2.06155 -7.35403,-3.12533c-2.6387,-1.07887 -5.09634,-2.42933 -7.37667,-4.04764c-2.26336,-1.63528 -4.15137,-3.63647 -5.66594,-6.00545c-1.49947,-2.3671 -2.24827,-5.36605 -2.24827,-8.99497c0,-2.6387 0.83933,-4.90961 2.51799,-6.81272c1.69375,-1.90499 3.75529,-3.44784 6.18463,-4.63234c2.42746,-1.19958 5.0058,-2.07664 7.73503,-2.63116c2.72923,-0.55452 5.13405,-0.83178 7.21823,-0.83178c3.38939,0 6.84478,0.27726 10.36807,0.83178c3.5365,0.55452 6.72973,1.49194 9.57968,2.81034c2.86315,1.32029 5.19441,3.10268 6.99378,5.35284c1.81257,2.23318 2.7198,5.06616 2.7198,8.50081c0,0.92797 -0.08865,1.96346 -0.26971,3.10269c-0.17918,1.12414 -0.50171,2.19545 -0.9657,3.21585c-0.46588,1.00342 -1.08076,1.84276 -1.84464,2.51799c-0.76577,0.67523 -1.73147,1.01285 -2.90087,1.01285c-0.67523,0 -1.47685,-0.01509 -2.40671,-0.04526c-0.91477,-0.03018 -1.78428,-0.18107 -2.60852,-0.45079c-0.82424,-0.2848 -1.51456,-0.71107 -2.06909,-1.28068c-0.55452,-0.5847 -0.83178,-1.43158 -0.83178,-2.54251c0,-2.14265 -0.74126,-3.61194 -2.22564,-4.40601c-1.4693,-0.81104 -3.30639,-1.21466 -5.50939,-1.21466c-1.66545,0 -2.83486,0.30743 -3.50821,0.92232c-0.67523,0.61488 -1.01286,1.37876 -1.01286,2.29354c0,0.19427 0.03018,0.381 0.09053,0.56207c0.06036,0.17918 0.11883,0.33007 0.17919,0.4489c0.86951,1.72392 2.24261,3.24604 4.11554,4.56633c1.87482,1.31841 3.9722,2.57835 6.29591,3.77793c2.33881,1.1977 4.73797,2.39727 7.19748,3.59686c2.45763,1.19958 4.70025,2.5708 6.72407,4.11554c2.02382,1.52966 3.69493,3.27621 5.01334,5.23968c1.32029,1.96346 1.98045,4.29473 1.98045,6.99378c0,3.68739 -1.04303,6.82214 -3.12721,9.40049c-2.08418,2.57835 -4.6927,4.70025 -7.82557,6.36381c-3.13286,1.64848 -6.48452,2.85561 -10.0512,3.61949c-3.55348,0.76577 -6.80705,1.14677 -9.76074,1.14677c-2.02382,0 -4.12875,-0.04338 -6.31855,-0.13392c-2.17283,-0.09053 -4.3249,-0.33762 -6.45435,-0.74314c-2.11247,-0.38855 -4.12309,-0.97324 -6.0262,-1.7541c-1.90311,-0.76388 -3.64967,-1.82012 -5.23968,-3.17059c-1.10905,-0.91477 -2.11436,-2.06154 -3.01404,-3.44031c-0.8846,-1.37876 -1.64848,-2.83297 -2.29354,-4.36263c-0.64506,-1.54474 -1.13922,-3.14042 -1.48439,-4.78889c-0.32819,-1.66545 -0.49417,-3.23849 -0.49417,-4.72288c0,-2.75941 0.89213,-4.99259 2.67642,-6.70143c1.78428,-1.72392 4.05519,-2.58588 6.81272,-2.58588c3.01404,0 5.66783,0.56961 7.96136,1.70884c2.30862,1.12414 4.29474,2.48781 5.96019,4.09291c1.09395,1.09395 1.97855,1.93329 2.6519,2.51799c0.69032,0.5847 1.29012,1.02039 1.79937,1.3052c0.52434,0.26971 1.02039,0.43381 1.48439,0.49417c0.46588,0.06036 0.97513,0.09053 1.52966,0.09053c0.67523,0 1.34859,-0.19615 2.02382,-0.5847c0.67523,-0.40552 1.01096,-1.22221 1.01096,-2.45197zM484.73107,26.99465c3.53838,2.29354 6.5147,5.37548 8.92895,9.24394c2.42746,3.86657 4.30227,8.34992 5.62068,13.44625c1.33538,5.09822 2.00119,10.47182 2.00119,16.12456c0,4.72288 -0.55452,8.66489 -1.66357,11.82794c-1.10905,3.16305 -2.81789,5.71309 -5.12651,7.64638c-2.29354,1.93329 -5.22458,3.31394 -8.79315,4.13818c-3.55348,0.83933 -7.75767,1.25806 -12.61635,1.25806c-5.45658,0 -10.08892,-0.49417 -13.89703,-1.48439c-3.80811,-0.98833 -6.89571,-2.61606 -9.26469,-4.87942c-2.36898,-2.27845 -4.09291,-5.28495 -5.17177,-9.01761c-1.06566,-3.74775 -1.59756,-8.38764 -1.59756,-13.91967c0,-2.27845 0.09053,-4.54935 0.26971,-6.81271c0.37534,-3.98917 1.40328,-7.84066 3.08194,-11.56011c1.69375,-3.71757 3.84582,-7.01642 6.45435,-9.89465c2.60852,-2.89333 5.61313,-5.2095 9.01761,-6.94851c3.41767,-1.7541 7.02962,-2.63116 10.83772,-2.63116c0,0 8.39518,1.15429 11.91848,3.46292zM461.95223,56.0279c0,3.32714 0.82424,5.94321 2.47272,7.8482c1.66357,1.90311 4.43053,2.85561 8.29899,2.85561c3.68739,0 6.25064,-0.86197 7.68976,-2.58589c1.43912,-1.72392 2.15962,-4.05518 2.15962,-6.99378c0,-1.42403 -0.17352,-2.94614 -0.51868,-4.56633c-0.32819,-1.63339 -0.87517,-3.12532 -1.64094,-4.47391c-0.76388,-1.35047 -1.79183,-2.46706 -3.08006,-3.35166c-1.29012,-0.89969 -2.88579,-1.34859 -4.79078,-1.34859c-1.78428,0 -3.33468,0.39043 -4.65498,1.16941c-1.31841,0.76388 -2.42746,1.76164 -3.32714,2.9914c-0.8846,1.22787 -1.54474,2.57835 -1.98044,4.04765c-0.41872,1.4693 -0.62808,2.9386 -0.62808,4.40789zM461.95223,56.0279" fill="none" stroke="#cf8560" stroke-width="34.33738" stroke-miterlimit="4"/><path d="M153.57045,43.14455c0,-0.37157 -0.17164,-0.66392 -0.51303,-0.87517c-0.33762,-0.21502 -0.73747,-0.36969 -1.19958,-0.46022c-0.45833,-0.09431 -0.93364,-0.15844 -1.42592,-0.18861c-0.48851,-0.03018 -0.8563,-0.04527 -1.1015,-0.04527c-1.65979,0 -3.3196,0.09431 -4.97939,0.27915c-1.65602,0.18107 -3.31205,0.2716 -4.97185,0.2716c-1.40894,0 -2.78959,-0.16787 -4.14195,-0.50548c-1.35425,-0.33573 -2.56892,-0.8563 -3.64401,-1.56172c-1.07132,-0.70919 -1.92951,-1.63151 -2.57268,-2.76884c-0.64317,-1.13545 -0.9657,-2.50101 -0.9657,-4.09668c0,-1.53343 0.30744,-2.92917 0.92043,-4.18722c0.61299,-1.26182 1.44101,-2.3539 2.48216,-3.27433c1.04492,-0.92043 2.24261,-1.62396 3.5912,-2.11247c1.35236,-0.49228 2.76507,-0.73936 4.24003,-0.73936c2.15208,0 4.27209,0.21502 6.36004,0.64129c2.08607,0.42815 4.20419,0.64129 6.35249,0.64129c2.82543,0 5.6056,-0.24331 8.33672,-0.73182c2.73112,-0.49228 5.47922,-0.73936 8.24617,-0.73936c1.72015,0 3.34599,0.15466 4.88131,0.46022c1.53343,0.30744 2.89899,0.8299 4.09669,1.56926c1.19581,0.73559 2.14641,1.74844 2.85183,3.04044c0.70919,1.28823 1.06379,2.91596 1.06379,4.88131c0,1.90122 -0.32253,3.54404 -0.9657,4.92658c-0.64506,1.38442 -1.45987,2.67454 -2.44443,3.87035c-0.98079,1.1977 -2.02571,2.39539 -3.13099,3.5912c-1.10716,1.1977 -2.15019,2.56325 -3.13098,4.09668c-0.98079,1.53531 -1.7956,3.34788 -2.44443,5.4396c-0.64506,2.08795 -0.9657,4.63612 -0.9657,7.64261c0,1.4146 0.04527,2.81223 0.1358,4.19477c0.09431,1.37876 0.14335,2.7745 0.14335,4.18721c0,2.1483 -0.21691,4.1759 -0.64883,6.08089c-0.42815,1.90122 -1.25617,3.74209 -2.48216,5.5226c-0.61488,0.92043 -1.42969,1.85972 -2.44443,2.81411c-1.01096,0.95061 -2.10115,1.82578 -3.26678,2.6255c-1.16751,0.79595 -2.38218,1.45421 -3.644,1.97667c-1.25805,0.52246 -2.43689,0.78463 -3.53839,0.78463c-2.02759,0 -3.93447,-0.35459 -5.71876,-1.06378c-1.78051,-0.70353 -3.31582,-1.68432 -4.60216,-2.94237c-1.28823,-1.26182 -2.30108,-2.76884 -3.04044,-4.51917c-0.73559,-1.75033 -1.10151,-3.66853 -1.10151,-5.75648c0,-3.50066 0.79595,-6.89193 2.39162,-10.17757c1.59944,-3.28376 3.36485,-6.3374 5.29626,-9.15906c1.93517,-2.82543 3.70059,-5.39058 5.29626,-7.69543c1.59944,-2.30297 2.39917,-4.28152 2.39917,-5.93754zM153.57045,43.14455" fill="#dfd992" stroke="none" stroke-width="1" stroke-miterlimit="10"/><path d="M206.52593,22.51026c3.6855,0 7.44834,0.38477 11.28662,1.15431c3.8364,0.76577 7.32009,1.99175 10.44918,3.68173c3.13286,1.68621 5.66783,3.86657 7.6049,6.54111c1.93517,2.67077 2.81034,5.87719 2.6255,9.61928c-0.06036,2.02759 -0.44512,3.77792 -1.15431,5.25099c-0.70542,1.47496 -1.47119,2.7349 -2.30109,3.77982c-0.8299,1.04115 -1.56738,1.91631 -2.21055,2.6255c-0.64506,0.70542 -0.9657,1.33349 -0.9657,1.88613c0,0.49417 0.613,1.03172 1.84087,1.61453c1.22599,0.5847 2.59155,1.36555 4.09668,2.34634c1.5089,0.98079 2.87635,2.24073 4.10422,3.77982c1.22599,1.53531 1.84087,3.4686 1.84087,5.80175c0,3.86846 -1.10716,7.09185 -3.3196,9.67209c-2.20866,2.58023 -5.12651,4.65309 -8.75166,6.21669c-3.62137,1.56549 -7.7671,2.68398 -12.43339,3.35732c-4.66818,0.67901 -9.48913,1.01851 -14.46287,1.01851c-1.59567,0 -3.6044,-0.17164 -6.02808,-0.51303c-2.42557,-0.33762 -4.77381,-0.95061 -7.0466,-1.84087c-2.27468,-0.89026 -4.22493,-2.08607 -5.85455,-3.5912c-1.62585,-1.50325 -2.43689,-3.39126 -2.43689,-5.66594c0,-2.20678 0.30555,-4.2174 0.92043,-6.02808c0.61299,-1.81069 1.30144,-3.72889 2.06721,-5.75648c0.76954,-2.02571 1.45986,-4.34565 2.07474,-6.95606c0.61865,-2.61041 0.92797,-5.81872 0.92797,-9.62682c0,-2.20678 -0.18672,-4.23248 -0.5583,-6.07335c-0.3678,-1.84464 -0.78274,-3.51953 -1.24485,-5.02466c-0.45833,-1.50325 -0.88837,-2.91408 -1.29012,-4.23248c-0.39798,-1.32218 -0.59602,-2.5972 -0.59602,-3.82507c0,-1.10528 0.41495,-2.21243 1.24485,-3.3196c0.8299,-1.10528 2.10493,-2.10493 3.82508,-2.99518c1.72015,-0.89026 3.88167,-1.59379 6.4883,-2.11247c2.61041,-0.52246 5.69612,-0.78463 9.25714,-0.78463zM212.42575,38.2557c-0.92043,0 -1.70506,0.20181 -2.35389,0.60356c-0.64506,0.39798 -1.16564,0.87328 -1.56172,1.42592c-0.39798,0.55452 -0.67523,1.12224 -0.8299,1.70506c-0.15089,0.5847 -0.22634,1.09019 -0.22634,1.51645c0,2.08795 0.30556,3.67042 0.92044,4.74551c0.61299,1.07698 1.65602,1.61453 3.13098,1.61453c0.67335,0 1.40705,-0.13769 2.203,-0.41495c0.79972,-0.27537 1.52023,-0.69032 2.16528,-1.24485c0.64883,-0.55264 1.18637,-1.24485 1.61452,-2.07475c0.43192,-0.8299 0.64883,-1.7956 0.64883,-2.8971c0,-0.67901 -0.17164,-1.30898 -0.51303,-1.89368c-0.33762,-0.58281 -0.78274,-1.10338 -1.33538,-1.56172c-0.54887,-0.46211 -1.16186,-0.83178 -1.84087,-1.10904c-0.67523,-0.27537 -1.34859,-0.41495 -2.02194,-0.41495zM207.81604,66.07994c0,1.40894 0.18295,2.43688 0.55075,3.08571c0.37157,0.64506 0.77143,0.9657 1.19958,0.9657c0.55264,0 1.25993,-0.03018 2.12001,-0.09053c0.86008,-0.06413 1.70507,-0.21879 2.53496,-0.46022c0.8299,-0.2452 1.53531,-0.5979 2.12001,-1.05624c0.58281,-0.46211 0.87517,-1.06378 0.87517,-1.80314c0,-0.98079 -0.27726,-1.77673 -0.8299,-2.39161c-0.55452,-0.61865 -1.21467,-1.11093 -1.98421,-1.47873c-0.76577,-0.36591 -1.5919,-0.61111 -2.48216,-0.73182c-0.89026,-0.12449 -1.70507,-0.18861 -2.44443,-0.18861c-0.73559,0 -1.18072,0.20181 -1.33538,0.60356c-0.15089,0.39798 -0.26028,1.58058 -0.32442,3.54593zM207.81604,66.07994" fill="#dfd992" stroke="none" stroke-width="1" stroke-miterlimit="10"/><path d="M275.97956,22.60079c2.08607,0 4.37206,0.12448 6.85798,0.36968c2.48969,0.24708 4.85303,0.69221 7.09186,1.33539c2.24261,0.64506 4.1759,1.53531 5.80175,2.67076c1.62962,1.13734 2.5972,2.56515 2.90464,4.2853c0.30556,1.59567 0.49039,3.49878 0.55075,5.71121c0.06413,2.20866 0.40363,4.78701 1.01851,7.73315c0.42626,2.21432 1.19393,4.25512 2.30109,6.12616c1.10528,1.87104 2.22752,3.74586 3.36486,5.62068c1.13545,1.87104 2.13133,3.8213 2.98763,5.84701c0.86008,2.02759 1.29012,4.26832 1.29012,6.72218c0,3.00838 -0.27726,5.78666 -0.8299,8.33671c-0.54887,2.55005 -1.49947,4.71533 -2.85183,6.49584c-1.35425,1.78051 -3.11966,3.18003 -5.29626,4.19477c-2.17849,1.01096 -4.92658,1.51645 -8.24617,1.51645c-1.84087,0 -3.45351,-0.30744 -4.83604,-0.92043c-1.37876,-0.61299 -2.53119,-1.41083 -3.45539,-2.39161c-0.92043,-0.98456 -1.59756,-2.09172 -2.02948,-3.3196c-0.42815,-1.22599 -0.64129,-2.45574 -0.64129,-3.68928c0,-0.67335 0.04527,-1.40705 0.1358,-2.203c0.09431,-0.79972 0.04903,-1.5504 -0.1358,-2.25582c-0.18107,-0.70919 -0.56395,-1.30709 -1.14677,-1.7956c-0.5847,-0.49228 -1.52211,-0.73936 -2.81411,-0.73936c-2.64058,0 -4.34565,0.46022 -5.11519,1.38065c-0.76577,0.92043 -1.14677,2.05589 -1.14677,3.40259c0,1.90688 -0.27726,3.67419 -0.8299,5.30381c-0.55452,1.62585 -1.3052,3.02159 -2.25582,4.18721c-0.95061,1.16751 -2.07286,2.08795 -3.36486,2.7613c-1.28823,0.67901 -2.63871,1.01851 -4.05142,1.01851c-5.34153,0 -9.4118,-1.09018 -12.20705,-3.26678c-2.79148,-2.18226 -4.18722,-5.91491 -4.18722,-11.19609c0,-1.35236 0.27537,-2.70471 0.8299,-4.05896l0.27915,-0.36213c0.67335,-1.41271 1.42591,-2.94614 2.25581,-4.60216c0.8299,-1.65979 1.64094,-3.33468 2.43689,-5.02466c0.79972,-1.68998 1.53531,-3.39504 2.21055,-5.1152c0.67901,-1.72015 1.23165,-3.31582 1.6598,-4.79077c0.55264,-2.02571 0.98268,-3.9307 1.29012,-5.71121c0.30556,-1.78051 0.5979,-3.52708 0.87516,-5.24346c0.27537,-1.72015 0.613,-3.45539 1.01097,-5.20572c0.40175,-1.75033 0.99965,-3.578 1.7956,-5.48487c0.67901,-1.65414 1.61641,-2.98764 2.81411,-3.9986c1.19581,-1.01474 2.54629,-1.78429 4.05142,-2.30863c1.50325,-0.52246 3.08194,-0.87517 4.73797,-1.05624c1.65979,-0.18484 3.28941,-0.27914 4.88886,-0.27914zM273.76901,58.61839c0,0.18107 0.19804,0.33574 0.59602,0.46022c0.40175,0.12071 0.84687,0.23011 1.33538,0.32442c0.49228,0.09053 0.98268,0.16598 1.47118,0.22634c0.49228,0.06036 0.83179,0.09053 1.01852,0.09053c0.67335,0 1.50136,-0.06037 2.48215,-0.18107c0.98456,-0.12449 1.60133,-0.49416 1.84841,-1.10904c0.18107,-0.36591 0.24143,-0.9657 0.18107,-1.7956c-0.06036,-0.8299 -0.13958,-1.73524 -0.23388,-2.71603c-0.09053,-0.98079 -0.19993,-1.99176 -0.32442,-3.03291c-0.12071,-1.04492 -0.18107,-1.9993 -0.18107,-2.85938c0,-1.96535 -0.30744,-3.36486 -0.92043,-4.19476c-0.61488,-0.8299 -1.16564,-1.24485 -1.65226,-1.24485c-0.30744,0 -0.67712,0.10939 -1.10904,0.32442c-0.42815,0.21691 -0.85819,0.54132 -1.29012,0.97325c-0.42815,0.42815 -0.78086,0.9789 -1.05624,1.65225c-0.27726,0.67523 -0.41495,1.47118 -0.41495,2.39161c0,0.79972 -0.10939,1.72392 -0.32442,2.76884c-0.21691,1.04115 -0.43381,2.08606 -0.64883,3.13098c-0.21125,1.04115 -0.41118,1.99175 -0.59602,2.85183c-0.18107,0.86008 -0.24143,1.50702 -0.18107,1.93895zM273.76901,58.61839" fill="#dfd992" stroke="none" stroke-width="1" stroke-miterlimit="10"/><path d="M340.17721,68.10186c-0.67523,0 -1.19769,0.18672 -1.56926,0.5583c-0.3678,0.3678 -0.62997,0.82801 -0.78463,1.38065c-0.15089,0.54887 -0.24143,1.13168 -0.2716,1.75034c-0.03018,0.61488 -0.04527,1.1958 -0.04527,1.74278c0,1.47496 0.10562,2.93293 0.31687,4.37582c0.21502,1.44478 0.32442,2.87259 0.32442,4.2853c0,3.13475 -0.86008,5.42263 -2.58023,6.86552c-1.71638,1.44289 -4.07971,2.16528 -7.09186,2.16528c-2.08795,0 -4.02123,-0.35459 -5.80175,-1.06378c-1.78051,-0.70542 -3.3177,-1.68432 -4.60971,-2.94237c-1.28823,-1.26182 -2.30108,-2.76885 -3.04044,-4.51918c-0.73559,-1.75033 -1.10151,-3.66852 -1.10151,-5.75647c0,-0.98079 0.09243,-1.9314 0.27915,-2.85183c0.2452,-1.78051 0.61299,-3.4818 1.1015,-5.10765c0.49228,-1.62962 0.98456,-3.28941 1.47873,-4.97939c0.49228,-1.68998 0.92232,-3.41013 1.29012,-5.16046c0.36591,-1.75033 0.55075,-3.60817 0.55075,-5.57541c0,-1.96158 -0.21691,-3.75341 -0.64883,-5.37925c-0.42815,-1.62962 -0.88837,-3.22529 -1.38065,-4.79078c-0.48851,-1.56926 -0.94873,-3.16493 -1.38065,-4.79078c-0.42815,-1.62962 -0.64129,-3.39504 -0.64129,-5.29626c0,-2.27279 0.44512,-4.11554 1.33538,-5.53014c0.89026,-1.41271 2.0408,-2.50102 3.4554,-3.26678c1.41271,-0.76954 2.96123,-1.29201 4.64743,-1.56927c1.68998,-0.27537 3.36486,-0.41495 5.02465,-0.41495c1.53343,0 2.8839,0.32253 4.05142,0.9657c1.16563,0.64506 2.16528,1.50514 2.99518,2.58023c0.8299,1.07698 1.45798,2.32183 1.88613,3.73455c0.42626,1.40894 0.64129,2.84995 0.64129,4.32302c0,1.23353 -0.24709,2.58588 -0.73937,4.05895c-0.48851,1.47496 -0.73181,2.82543 -0.73181,4.05142c0,0.61488 0.21313,1.38065 0.64128,2.30108c0.43192,0.92043 1.10905,1.38065 2.02948,1.38065c1.16563,0 2.30297,-0.32064 3.41013,-0.9657c1.10528,-0.64317 2.07097,-1.50325 2.8971,-2.58023c0.8299,-1.07509 1.49005,-2.30297 1.98422,-3.68174c0.49228,-1.38254 0.73936,-2.78016 0.73936,-4.19476c0,-1.90122 0.18295,-3.78735 0.55075,-5.6584c0.36591,-1.87482 0.9657,-3.54971 1.7956,-5.02466c0.8299,-1.47307 1.90311,-2.67077 3.22151,-3.5912c1.32218,-0.92043 2.93482,-1.38065 4.83604,-1.38065c1.78051,0 3.46671,0.29235 5.06238,0.87517c1.59944,0.5847 2.99707,1.4146 4.19477,2.48969c1.19581,1.07132 2.14642,2.37464 2.85183,3.90807c0.70919,1.53531 1.06378,3.22528 1.06378,5.06993c0,1.90122 -0.43004,3.65156 -1.29012,5.251c-0.86008,1.59567 -1.92009,3.08383 -3.17625,4.46637c-1.25805,1.37876 -2.62361,2.69906 -4.09668,3.96088c-1.47496,1.25805 -2.84241,2.50102 -4.10423,3.727c-1.25805,1.22787 -2.31616,2.47272 -3.17624,3.73454c-0.86008,1.25805 -1.29012,2.56325 -1.29012,3.91561c0,1.04115 0.5979,2.02194 1.7956,2.94237c1.19581,0.92043 2.6255,1.82578 4.28529,2.71604c1.65979,0.89026 3.31583,1.79937 4.97185,2.72357c1.65979,0.92043 2.94992,1.9314 3.87035,3.0329c1.35236,1.65979 2.48969,3.53461 3.41012,5.62068c0.92043,2.08795 1.38065,4.20797 1.38065,6.36004c0,1.40894 -0.24708,2.75941 -0.73936,4.05142c-0.48851,1.28823 -1.28634,2.41047 -2.39161,3.36486c-1.10716,0.95061 -2.53497,1.70318 -4.2853,2.25582c-1.75033,0.54698 -3.88354,0.82235 -6.39776,0.82235c-2.45952,0 -4.54936,-0.39798 -6.26951,-1.19204c-1.71638,-0.79972 -3.14229,-1.82767 -4.27775,-3.08572c-1.13734,-1.26182 -2.08984,-2.67454 -2.85938,-4.24003c-0.76577,-1.5636 -1.43912,-3.11212 -2.02194,-4.64743c-0.5847,-1.53909 -1.16751,-3.01216 -1.75033,-4.4211c-0.5847,-1.41271 -1.27503,-2.55005 -2.07475,-3.41013c-0.3678,-0.43192 -0.70541,-0.66392 -1.01096,-0.69409c-0.30744,-0.03018 -0.55452,-0.04527 -0.73936,-0.04527zM340.17721,68.10186" fill="#dfd992" stroke="none" stroke-width="1" stroke-miterlimit="10"/><path d="M411.74615,67.18143c0,-1.90122 -0.75257,-3.47992 -2.25582,-4.73797c-1.50513,-1.26182 -3.39315,-2.39917 -5.66594,-3.41013c-2.27468,-1.01474 -4.73043,-2.05966 -7.37101,-3.13098c-2.64058,-1.07509 -5.09821,-2.42557 -7.37101,-4.05142c-2.26902,-1.62962 -4.15704,-3.62514 -5.66594,-5.99036c-1.50513,-2.36333 -2.25582,-5.35851 -2.25582,-8.98554c0,-2.64058 0.84499,-4.9115 2.53496,-6.81272c1.68998,-1.90499 3.74586,-3.45728 6.17143,-4.65498c2.42368,-1.19581 5.00203,-2.07097 7.73315,-2.6255c2.7349,-0.55264 5.14725,-0.8299 7.2352,-0.8299c3.37995,0 6.83535,0.27726 10.36619,0.8299c3.53084,0.55452 6.72218,1.49194 9.57401,2.81411c2.85561,1.31841 5.19064,3.09892 7.00133,5.34153c1.81069,2.23884 2.71603,5.07747 2.71603,8.51778c0,0.92043 -0.09431,1.95026 -0.27914,3.08572c-0.18107,1.13734 -0.5036,2.21433 -0.9657,3.22906c-0.45833,1.01096 -1.07132,1.85596 -1.84086,2.53496c-0.76577,0.67523 -1.73148,1.01096 -2.8971,1.01096c-0.67523,0 -1.47496,-0.01509 -2.39916,-0.04526c-0.92043,-0.03395 -1.7956,-0.1905 -2.6255,-0.46776c-0.82613,-0.27537 -1.51457,-0.70542 -2.06721,-1.29012c-0.55452,-0.58281 -0.8299,-1.42592 -0.8299,-2.52742c0,-2.15208 -0.73748,-3.62514 -2.21055,-4.4211c-1.47496,-0.79972 -3.31771,-1.19958 -5.53014,-1.19958c-1.65602,0 -2.82166,0.30745 -3.50066,0.92044c-0.67523,0.61488 -1.01096,1.38065 -1.01096,2.30108c0,0.18672 0.03018,0.37346 0.09053,0.5583c0.06413,0.18107 0.12825,0.33572 0.18861,0.46021c0.86008,1.71638 2.22564,3.23472 4.09669,4.5569c1.87104,1.31841 3.97219,2.57834 6.30723,3.77981c2.33315,1.1977 4.72665,2.39539 7.1824,3.5912c2.45952,1.1977 4.70213,2.56326 6.72972,4.09669c2.02571,1.53531 3.69871,3.28564 5.01712,5.25099c1.32218,1.96724 1.98421,4.30039 1.98421,7.00133c0,3.68173 -1.04491,6.81271 -3.13098,9.39294c-2.08795,2.58023 -4.69836,4.70025 -7.83123,6.36004c-3.13475,1.65414 -6.48075,2.86315 -10.04177,3.62892c-3.56102,0.76954 -6.81649,1.15431 -9.76263,1.15431c-2.02759,0 -4.13251,-0.04526 -6.31477,-0.1358c-2.17849,-0.09053 -4.32679,-0.33762 -6.44303,-0.73937c-2.11813,-0.39798 -4.13063,-0.98079 -6.03563,-1.75033c-1.90122,-0.76388 -3.65155,-1.822 -5.25099,-3.17625c-1.1015,-0.92043 -2.09738,-2.06909 -2.98764,-3.44785c-0.89026,-1.38254 -1.65979,-2.84052 -2.30862,-4.37583c-0.64506,-1.53909 -1.13545,-3.13475 -1.47118,-4.79077c-0.33762,-1.65979 -0.50548,-3.22529 -0.50548,-4.70025c0,-2.76507 0.89025,-5.0058 2.67076,-6.72218c1.78051,-1.72015 4.05142,-2.58023 6.81272,-2.58023c3.01216,0 5.66783,0.56961 7.96702,1.70507c2.30297,1.13168 4.2853,2.49724 5.94509,4.09668c1.10528,1.10716 1.99553,1.95215 2.67077,2.53496c0.67335,0.5847 1.27126,1.01474 1.7956,1.29012c0.52246,0.27726 1.01285,0.44512 1.47118,0.50548c0.46211,0.06036 0.96947,0.09053 1.524,0.09053c0.67335,0 1.3467,-0.19804 2.02193,-0.59602c0.67901,-0.40175 1.01852,-1.21656 1.01852,-2.44443zM411.74615,67.18143" fill="#dfd992" stroke="none" stroke-width="1" stroke-miterlimit="10"/><path d="M472.81436,23.52122c4.4211,0 8.39707,1.15243 11.92791,3.45539c3.53084,2.30485 6.50715,5.39058 8.93272,9.25715c2.42368,3.86846 4.29473,8.3518 5.61313,13.4519c1.32218,5.09633 1.98421,10.46804 1.98421,16.11512c0,4.72854 -0.55452,8.67432 -1.65979,11.83737c-1.1015,3.16493 -2.80469,5.71498 -5.10765,7.65016c-2.30485,1.9314 -5.2359,3.31017 -8.79693,4.13441c-3.56102,0.8299 -7.76898,1.24485 -12.622,1.24485c-5.46224,0 -10.09836,-0.49039 -13.90458,-1.47118c-3.80811,-0.98079 -6.89381,-2.60664 -9.25714,-4.88131c-2.36521,-2.27279 -4.08536,-5.28118 -5.16046,-9.02326c-1.07698,-3.74586 -1.61453,-8.38386 -1.61453,-13.91212c0,-2.27279 0.09242,-4.54558 0.27914,-6.82026c0.36591,-3.98729 1.39574,-7.83877 3.08572,-11.55068c1.68998,-3.71568 3.84017,-7.0183 6.45058,-9.90597c2.61041,-2.88578 5.61691,-5.20574 9.02326,-6.95607c3.41013,-1.75033 7.01829,-2.6255 10.8264,-2.6255zM461.94269,56.03816c0,3.31583 0.82613,5.92623 2.48216,7.83122c1.65979,1.90122 4.42298,2.85183 8.29144,2.85183c3.6855,0 6.25065,-0.86007 7.69543,-2.58023c1.44289,-1.72015 2.16528,-4.0533 2.16528,-7.00133c0,-1.41271 -0.16975,-2.93105 -0.50548,-4.5569c-0.33762,-1.62962 -0.89026,-3.11778 -1.65979,-4.46637c-0.76954,-1.35236 -1.79937,-2.4746 -3.08572,-3.36486c-1.28823,-0.89026 -2.88579,-1.33538 -4.79078,-1.33538c-1.78051,0 -3.3328,0.38477 -4.65498,1.15431c-1.31841,0.76577 -2.4218,1.76354 -3.31205,2.99518c-0.89026,1.22787 -1.55229,2.57834 -1.98421,4.05141c-0.42815,1.47496 -0.64129,2.94803 -0.64129,4.4211zM461.94269,56.03816" fill="#dfd992" stroke="none" stroke-width="1" stroke-miterlimit="10"/></g></g></g></svg>