<svg version="1.1" xmlns="http://www.w3.org/2000/svg" xmlns:xlink="http://www.w3.org/1999/xlink" width="278.74206" height="82.71192" viewBox="-13.09727,0,278.74206,82.71192"><g transform="translate(-20.03185,-268.75907)"><g data-paper-data="{&quot;isPaintingLayer&quot;:true}" fill-rule="nonzero" stroke-linecap="butt" stroke-linejoin="miter" stroke-dasharray="" stroke-dashoffset="0" style="mix-blend-mode: normal"><g><path d="M40.81686,302.03861c0,-0.24579 -0.1124,-0.43723 -0.33842,-0.57433c-0.22603,-0.1371 -0.49034,-0.23591 -0.79541,-0.29519c-0.29396,-0.06793 -0.60397,-0.1124 -0.92757,-0.13216c-0.31372,-0.01976 -0.55457,-0.02964 -0.72131,-0.02964c-1.07949,0 -2.16516,0.06423 -3.25453,0.19144c-1.08937,0.11857 -2.17504,0.17662 -3.25453,0.17662c-0.92263,0 -1.83044,-0.10746 -2.72467,-0.3236c-0.88311,-0.22603 -1.67852,-0.56939 -2.38501,-1.03132c-0.69661,-0.4607 -1.25735,-1.06467 -1.67852,-1.81068c-0.42241,-0.74601 -0.63361,-1.639 -0.63361,-2.6802c0,-1.01156 0.20132,-1.92925 0.60397,-2.75431c0.40265,-0.82382 0.94239,-1.53525 1.61924,-2.13428c0.68796,-0.60891 1.47349,-1.07085 2.3566,-1.38456c0.88311,-0.3236 1.81068,-0.4854 2.78272,-0.4854c1.40433,0 2.78889,0.14204 4.15369,0.42611c1.37345,0.27543 2.76295,0.41253 4.16728,0.41253c1.84526,0 3.66088,-0.15686 5.44809,-0.47058c1.79709,-0.32484 3.59789,-0.48664 5.40487,-0.48664c1.1289,0 2.19357,0.10375 3.19524,0.31001c1.01156,0.19515 1.90455,0.53481 2.6802,1.01527c0.78553,0.4817 1.40803,1.14372 1.86996,1.98854c0.47058,0.84358 0.70649,1.90949 0.70649,3.19524c0,1.24623 -0.2112,2.32202 -0.63238,3.22489c-0.42241,0.90287 -0.95721,1.74769 -1.60565,2.53322c-0.63855,0.78553 -1.32034,1.56983 -2.04659,2.35537c-0.72625,0.78553 -1.41421,1.6847 -2.06141,2.69502c-0.63855,1.00168 -1.16842,2.18492 -1.59083,3.54972c-0.42241,1.36357 -0.63361,3.03344 -0.63361,5.00592c0,0.92263 0.02964,1.83662 0.08893,2.73949c0.05805,0.90287 0.08769,1.82056 0.08769,2.75307c0,1.40433 -0.14204,2.72961 -0.42611,3.97707c-0.27543,1.24623 -0.81518,2.45417 -1.62047,3.62136c-0.40265,0.59903 -0.93745,1.21288 -1.60442,1.84156c-0.65832,0.61879 -1.36974,1.19312 -2.13551,1.72299c-0.76577,0.51998 -1.56119,0.94733 -2.38624,1.28081c-0.82382,0.34336 -1.59453,0.51504 -2.31214,0.51504c-1.33516,0 -2.58633,-0.22973 -3.75475,-0.69166c-1.15854,-0.46193 -2.16022,-1.10419 -3.0038,-1.92925c-0.84482,-0.82506 -1.50684,-1.80574 -1.98854,-2.94452c-0.48046,-1.14866 -0.72131,-2.41095 -0.72131,-3.78563c0,-2.28743 0.51998,-4.5057 1.56119,-6.65604c1.03997,-2.1491 2.19357,-4.14752 3.46079,-5.99278c1.27587,-1.85514 2.43441,-3.5349 3.47562,-5.0368c1.04985,-1.51178 1.57477,-2.81236 1.57477,-3.90173zM75.49273,288.53509c2.41589,0 4.87994,0.24949 7.39217,0.75095c2.51346,0.50022 4.79101,1.30552 6.83389,2.41465c2.05153,1.09925 3.71029,2.52828 4.97628,4.28585c1.27711,1.74645 1.85144,3.84244 1.72299,6.28797c-0.03829,1.33516 -0.28902,2.48382 -0.75095,3.44597c-0.4607,0.96092 -0.9671,1.78598 -1.51672,2.47394c-0.53975,0.67684 -1.02021,1.25117 -1.44262,1.72175c-0.42241,0.46193 -0.63361,0.86952 -0.63361,1.22276c0,0.3236 0.40265,0.67684 1.20794,1.05973c0.8053,0.38289 1.69828,0.89916 2.6802,1.54636c0.99056,0.63855 1.88973,1.46361 2.69502,2.47394c0.80406,1.00168 1.20671,2.26767 1.20671,3.79922c0,2.53322 -0.72625,4.64403 -2.17874,6.33244c-1.44385,1.6884 -3.35334,3.04827 -5.72847,4.07959c-2.37636,1.02021 -5.09115,1.75263 -8.14312,2.19357c-3.05321,0.44217 -6.21016,0.66326 -9.46963,0.66326c-1.03997,0 -2.35537,-0.11363 -3.94619,-0.33966c-1.59083,-0.21491 -3.13225,-0.61262 -4.62427,-1.19189c-1.48214,-0.58915 -2.75801,-1.37468 -3.82886,-2.3566c-1.05973,-0.9918 -1.58959,-2.22815 -1.58959,-3.71029c0,-1.45373 0.20132,-2.76913 0.60397,-3.94743c0.40141,-1.18695 0.85346,-2.44429 1.35369,-3.76957c0.50146,-1.33516 0.95227,-2.85682 1.35492,-4.56499c0.40265,-1.70817 0.60397,-3.8091 0.60397,-6.3028c0,-1.44261 -0.12228,-2.76789 -0.36806,-3.97584c-0.23591,-1.20794 -0.50516,-2.30226 -0.81024,-3.28417c-0.30384,-0.99056 -0.58915,-1.91937 -0.85346,-2.78272c-0.25567,-0.86335 -0.38289,-1.69828 -0.38289,-2.50358c0,-0.72625 0.26926,-1.44756 0.81024,-2.16392c0.54963,-0.72748 1.38333,-1.37962 2.50234,-1.95889c1.13013,-0.58915 2.54804,-1.05108 4.25621,-1.38456c1.70817,-0.34336 3.73005,-0.51504 6.06689,-0.51504zM79.35123,298.84337c-0.59903,0 -1.10913,0.13216 -1.53154,0.39771c-0.42241,0.25443 -0.76577,0.56445 -1.03132,0.92757c-0.26431,0.36312 -0.44588,0.73613 -0.54469,1.11901c-0.09757,0.38289 -0.14698,0.71143 -0.14698,0.98686c0,1.37345 0.20132,2.41465 0.60397,3.12114c0.40265,0.69784 1.08443,1.04614 2.04659,1.04614c0.44217,0 0.92263,-0.08893 1.44385,-0.26555c0.52986,-0.1865 1.00538,-0.4607 1.42779,-0.82506c0.42241,-0.36312 0.77071,-0.81394 1.04614,-1.35369c0.28408,-0.54098 0.42611,-1.17336 0.42611,-1.89961c0,-0.44217 -0.1124,-0.8547 -0.33842,-1.23759c-0.21615,-0.38289 -0.50516,-0.72131 -0.86829,-1.0165c-0.36312,-0.30384 -0.76577,-0.54469 -1.20794,-0.72131c-0.44217,-0.1865 -0.88311,-0.27914 -1.32528,-0.27914zM76.33261,317.05885c0,0.92263 0.11734,1.59577 0.35324,2.01694c0.24579,0.42241 0.5101,0.63361 0.79541,0.63361c0.36312,0 0.82382,-0.01976 1.38456,-0.05929c0.56939,-0.03829 1.12396,-0.1371 1.6637,-0.29396c0.53975,-0.16674 1.00168,-0.39771 1.38333,-0.69166c0.38289,-0.30507 0.57433,-0.69784 0.57433,-1.1783c0,-0.64844 -0.18156,-1.17336 -0.54469,-1.57601c-0.36312,-0.40265 -0.79418,-0.72131 -1.29564,-0.95721c-0.50022,-0.24579 -1.04491,-0.40759 -1.63406,-0.4854c-0.57927,-0.07905 -1.10913,-0.11857 -1.59083,-0.11857c-0.48046,0 -0.77565,0.13216 -0.88311,0.39771c-0.09881,0.25567 -0.16674,1.02638 -0.20626,2.31214zM120.9771,288.59314c1.36357,0 2.86176,0.07905 4.49088,0.23591c1.62912,0.15686 3.17548,0.44711 4.63909,0.86952c1.47226,0.42117 2.73825,1.00538 3.79922,1.75139c1.06961,0.74724 1.70322,1.6847 1.89961,2.81359c0.20626,1.03997 0.32854,2.28743 0.36806,3.73993c0.03952,1.44262 0.25937,3.13225 0.66202,5.06521c0.27543,1.44385 0.77565,2.77901 1.5019,4.00548c0.72748,1.22771 1.45867,2.45541 2.1948,3.68188c0.74601,1.2277 1.39939,2.50358 1.95889,3.82886c0.56939,1.32528 0.85346,2.7926 0.85346,4.40319c0,1.97248 -0.18156,3.79428 -0.54469,5.46292c-0.36312,1.66864 -0.98686,3.08779 -1.86996,4.25621c-0.88434,1.15854 -2.04165,2.07129 -3.47562,2.73825c-1.42285,0.65832 -3.21995,0.98686 -5.39004,0.98686c-1.20671,0 -2.26273,-0.20132 -3.1656,-0.60397c-0.90287,-0.40265 -1.65876,-0.92263 -2.26767,-1.55995c-0.59903,-0.64844 -1.0412,-1.36974 -1.32528,-2.16516c-0.27543,-0.8053 -0.41253,-1.61059 -0.41253,-2.41465c0,-0.44217 0.02964,-0.92387 0.08893,-1.44385c0.05805,-0.52986 0.02347,-1.02515 -0.10375,-1.48708c-0.11734,-0.46193 -0.36806,-0.85346 -0.75095,-1.1783c-0.373,-0.3236 -0.98192,-0.4854 -1.8255,-0.4854c-1.72793,0 -2.84694,0.30384 -3.35828,0.91275c-0.50022,0.59903 -0.75095,1.3401 -0.75095,2.22321c0,1.24747 -0.18156,2.40601 -0.54469,3.47562c-0.36312,1.05973 -0.85841,1.97371 -1.48708,2.73949c-0.61879,0.76577 -1.34998,1.36851 -2.1948,1.81068c-0.84358,0.44217 -1.72669,0.66326 -2.65056,0.66326c-3.49414,0 -6.15952,-0.71266 -7.99614,-2.13551c-1.8255,-1.43397 -2.73825,-3.87826 -2.73825,-7.33412c0,-0.88311 0.18156,-1.76622 0.54469,-2.65056l0.17662,-0.24949c0.44217,-0.92387 0.93251,-1.92431 1.47226,-3.00504c0.54963,-1.08937 1.08567,-2.18368 1.60565,-3.28294c0.51998,-1.11037 1.00168,-2.22938 1.44262,-3.35828c0.45205,-1.1289 0.81518,-2.1738 1.08937,-3.13596c0.36436,-1.32528 0.6435,-2.57275 0.83988,-3.74117c0.20626,-1.16718 0.39771,-2.3109 0.57433,-3.43115c0.1865,-1.1289 0.40759,-2.26273 0.66326,-3.40151c0.26431,-1.14866 0.65708,-2.34548 1.17707,-3.59295c0.44217,-1.08937 1.05602,-1.96383 1.84156,-2.62092c0.78553,-0.6682 1.66864,-1.17336 2.65056,-1.51672c0.9918,-0.34336 2.02682,-0.57433 3.10632,-0.69166c1.09061,-0.11857 2.16022,-0.17786 3.2113,-0.17786zM119.51842,312.17026c0,0.11734 0.12845,0.21985 0.38289,0.30878c0.26555,0.07905 0.55951,0.14698 0.88434,0.20626c0.3236,0.05929 0.6472,0.10746 0.97204,0.14698c0.3236,0.03952 0.54469,0.05929 0.66202,0.05929c0.44217,0 0.98192,-0.03952 1.62047,-0.11857c0.6472,-0.07781 1.04985,-0.31866 1.20671,-0.72131c0.12845,-0.24455 0.16674,-0.63732 0.11857,-1.1783c-0.03952,-0.53975 -0.08893,-1.1289 -0.14821,-1.76622c-0.05805,-0.64844 -0.12722,-1.3154 -0.20626,-2.00336c-0.07781,-0.68672 -0.11734,-1.31046 -0.11734,-1.86996c0,-1.28576 -0.20132,-2.19851 -0.60397,-2.73949c-0.40265,-0.54963 -0.76577,-0.82382 -1.08937,-0.82382c-0.19638,0 -0.43723,0.07287 -0.72131,0.22109c-0.28531,0.1371 -0.56939,0.3483 -0.8547,0.63238c-0.2742,0.27543 -0.50516,0.63855 -0.69166,1.09061c-0.17662,0.44094 -0.26555,0.96216 -0.26555,1.55995c0,0.52122 -0.07287,1.12396 -0.22109,1.81191c-0.1371,0.68672 -0.2742,1.37468 -0.41129,2.06141c-0.13833,0.67684 -0.27049,1.29564 -0.39771,1.85514c-0.11857,0.55951 -0.15809,0.98192 -0.11857,1.26723zM163.01179,318.38413c-0.44217,0 -0.78553,0.12228 -1.03009,0.36806c-0.23591,0.23591 -0.40759,0.53481 -0.51628,0.89793c-0.09757,0.36312 -0.15686,0.74601 -0.17662,1.14866c-0.01976,0.40265 -0.02964,0.78553 -0.02964,1.14866c0,0.96216 0.06917,1.91443 0.20626,2.85682c0.14821,0.94239 0.22109,1.87985 0.22109,2.81236c0,2.05276 -0.56445,3.54972 -1.69334,4.49212c-1.1289,0.94239 -2.67526,1.41297 -4.63909,1.41297c-1.37345,0 -2.64562,-0.22973 -3.81404,-0.69166c-1.15854,-0.4607 -2.15898,-1.10419 -3.0038,-1.92925c-0.84358,-0.82382 -1.51178,-1.81068 -2.00212,-2.95934c-0.4817,-1.14866 -0.72254,-2.406 -0.72254,-3.76957c0,-0.63855 0.06423,-1.26229 0.19144,-1.8712c0.15809,-1.16718 0.39771,-2.28249 0.72254,-3.34222c0.3236,-1.06961 0.64226,-2.15528 0.95721,-3.25453c0.3236,-1.10913 0.60274,-2.23309 0.83864,-3.37187c0.24579,-1.14866 0.36806,-2.36648 0.36806,-3.65224c0,-1.29564 -0.14204,-2.47394 -0.42611,-3.53367c-0.27543,-1.07085 -0.57433,-2.11575 -0.89916,-3.13719c-0.31372,-1.02144 -0.61262,-2.06635 -0.89793,-3.13719c-0.28408,-1.06961 -0.42735,-2.22815 -0.42735,-3.47438c0,-1.48214 0.29025,-2.68514 0.86952,-3.60777c0.58915,-0.93251 1.34504,-1.65011 2.26767,-2.15034c0.92263,-0.50022 1.93913,-0.83988 3.04827,-1.0165c1.10913,-0.1865 2.20345,-0.27914 3.28417,-0.27914c1.01032,0 1.89467,0.2112 2.65056,0.63238c0.76577,0.42241 1.41791,0.98686 1.95766,1.69458c0.54963,0.70649 0.96216,1.52166 1.23759,2.44429c0.28408,0.92263 0.42735,1.86502 0.42735,2.82718c0,0.8053 -0.16304,1.69334 -0.48664,2.66538c-0.31372,0.96215 -0.47058,1.84526 -0.47058,2.65056c0,0.40265 0.1371,0.90781 0.41129,1.51672c0.28531,0.59903 0.72748,0.89793 1.32528,0.89793c0.76577,0 1.51302,-0.2112 2.23926,-0.63238c0.72625,-0.42241 1.35986,-0.98686 1.89961,-1.69458c0.53975,-0.70649 0.97204,-1.51178 1.29564,-2.41465c0.3236,-0.90287 0.4854,-1.81562 0.4854,-2.73825c0,-1.24747 0.11857,-2.48382 0.35448,-3.71152c0.24455,-1.22771 0.63732,-2.32202 1.17707,-3.28417c0.54963,-0.97204 1.25735,-1.75633 2.12069,-2.35537c0.86458,-0.60891 1.91937,-0.91399 3.16684,-0.91399c1.16718,0 2.27261,0.19144 3.31258,0.57433c1.0412,0.38289 1.95395,0.92881 2.73949,1.63529c0.78553,0.70649 1.40803,1.56119 1.86996,2.56163c0.46193,1.00168 0.69166,2.10587 0.69166,3.31382c0,1.24623 -0.27914,2.39489 -0.83864,3.44597c-0.55951,1.03997 -1.25241,2.01694 -2.07623,2.93093c-0.82506,0.90287 -1.72299,1.76622 -2.69502,2.59127c-0.96216,0.81518 -1.85514,1.62418 -2.6802,2.42947c-0.82506,0.8053 -1.51672,1.62047 -2.07623,2.44429c-0.55951,0.82506 -0.83988,1.67852 -0.83988,2.56286c0,0.68672 0.38783,1.33516 1.16348,1.94407c0.78553,0.5978 1.72299,1.19189 2.81236,1.78104c1.09061,0.57927 2.17504,1.17336 3.25453,1.78227c1.08937,0.59903 1.93419,1.25611 2.53322,1.97371c0.88311,1.08937 1.62418,2.31584 2.22321,3.68064c0.60891,1.3648 0.91275,2.75431 0.91275,4.16728c0,0.92263 -0.1618,1.80697 -0.4854,2.65056c-0.31372,0.84482 -0.83494,1.58095 -1.56119,2.20962c-0.72625,0.61879 -1.6637,1.10913 -2.81236,1.47226c-1.13878,0.36312 -2.53322,0.54469 -4.1821,0.54469c-1.61059,0 -2.9791,-0.25937 -4.10799,-0.78059c-1.12025,-0.52986 -2.05276,-1.20671 -2.79877,-2.03177c-0.74601,-0.82506 -1.36974,-1.74769 -1.86997,-2.76789c-0.50022,-1.03132 -0.94239,-2.04782 -1.32528,-3.04827c-0.38289,-1.00168 -0.76577,-1.96383 -1.14866,-2.88647c-0.38289,-0.93251 -0.83494,-1.67976 -1.35492,-2.23926c-0.24579,-0.28408 -0.47058,-0.436 -0.67684,-0.45576c-0.19638,-0.01976 -0.35324,-0.02964 -0.47181,-0.02964zM209.87948,317.78016c0,-1.24623 -0.49528,-2.28249 -1.48708,-3.10755c-0.98192,-0.82382 -2.21827,-1.56489 -3.71029,-2.22321c-1.48214,-0.66696 -3.08779,-1.34998 -4.81572,-2.04659c-1.72793,-0.70649 -3.33728,-1.59083 -4.83054,-2.65056c-1.48214,-1.07085 -2.71849,-2.3813 -3.71029,-3.93261c-0.98192,-1.55007 -1.47226,-3.5139 -1.47226,-5.89027c0,-1.72793 0.54963,-3.21501 1.64888,-4.46124c1.10913,-1.24747 2.45912,-2.25779 4.04994,-3.03344c1.58959,-0.78553 3.278,-1.35986 5.06521,-1.72299c1.78721,-0.36312 3.36198,-0.54469 4.72679,-0.54469c2.2195,0 4.48223,0.18156 6.78943,0.54469c2.31584,0.36312 4.40689,0.97698 6.27315,1.84032c1.87491,0.86458 3.40151,2.03177 4.57981,3.50526c1.18695,1.46238 1.78104,3.31752 1.78104,5.56667c0,0.60768 -0.05805,1.28576 -0.17662,2.03177c-0.11734,0.73613 -0.32854,1.43767 -0.63238,2.10587c-0.30507,0.65708 -0.70772,1.20671 -1.20794,1.64888c-0.50146,0.44217 -1.13384,0.66326 -1.89961,0.66326c-0.44217,0 -0.9671,-0.00988 -1.57601,-0.02964c-0.59903,-0.01976 -1.16842,-0.11857 -1.70816,-0.29519c-0.53975,-0.1865 -0.9918,-0.46564 -1.35492,-0.83864c-0.36312,-0.38289 -0.54469,-0.93745 -0.54469,-1.66494c0,-1.40309 -0.4854,-2.36525 -1.45744,-2.88523c-0.96216,-0.5311 -2.16516,-0.79541 -3.60777,-0.79541c-1.09061,0 -1.85638,0.20132 -2.29732,0.60397c-0.44217,0.40265 -0.66326,0.90287 -0.66326,1.5019c0,0.12722 0.01976,0.24949 0.05929,0.36806c0.03952,0.11734 0.07781,0.21615 0.11734,0.29396c0.56939,1.1289 1.46855,2.12563 2.69502,2.99021c1.2277,0.86335 2.60115,1.6884 4.12282,2.47394c1.53154,0.7843 3.10261,1.56983 4.7132,2.35537c1.60936,0.78553 3.07791,1.68346 4.40319,2.69502c1.32528,1.00168 2.41959,2.1454 3.28294,3.43115c0.86458,1.28576 1.29687,2.81236 1.29687,4.57981c0,2.41465 -0.68302,4.46741 -2.04782,6.15582c-1.3648,1.6884 -3.07297,3.07791 -5.12449,4.16728c-2.05153,1.07949 -4.24633,1.86996 -6.58193,2.37019c-2.32696,0.50146 -4.45753,0.75095 -6.39172,0.75095c-1.32528,0 -2.70367,-0.02841 -4.13764,-0.08769c-1.42285,-0.05929 -2.83212,-0.22109 -4.22657,-0.48664c-1.38333,-0.25443 -2.69996,-0.63732 -3.94619,-1.14866c-1.24623,-0.50022 -2.38995,-1.19189 -3.43115,-2.07623c-0.72625,-0.59903 -1.38456,-1.34998 -1.97371,-2.25285c-0.57927,-0.90287 -1.07949,-1.85514 -1.5019,-2.85682c-0.42241,-1.01156 -0.74601,-2.05647 -0.97204,-3.13596c-0.21491,-1.09061 -0.3236,-2.12069 -0.3236,-3.09273c0,-1.80697 0.58421,-3.26935 1.75263,-4.38837c1.16842,-1.1289 2.6555,-1.69334 4.46124,-1.69334c1.97371,0 3.71152,0.373 5.21342,1.11901c1.51178,0.73613 2.81236,1.62912 3.90297,2.6802c0.71637,0.71637 1.29564,1.26599 1.73657,1.64888c0.45205,0.38289 0.84482,0.6682 1.1783,0.8547c0.34336,0.17662 0.6682,0.28408 0.97204,0.3236c0.30507,0.03952 0.63855,0.05929 1.00168,0.05929c0.44217,0 0.88311,-0.12845 1.32528,-0.38289c0.44217,-0.26555 0.66202,-0.80036 0.66202,-1.60565zM249.86511,289.19711c2.89635,0 5.4975,0.75589 7.8047,2.26767c2.31708,1.5019 4.26609,3.52008 5.84704,6.0533c1.58959,2.53199 2.8173,5.46786 3.68064,8.80514c0.87446,3.33852 1.31046,6.85736 1.31046,10.559c0,3.09273 -0.36312,5.67412 -1.08937,7.74541c-0.72625,2.07129 -1.84526,3.74117 -3.35704,5.00716c-1.5019,1.26599 -3.42127,2.1701 -5.75811,2.70984c-2.32696,0.54963 -5.08003,0.82382 -8.26169,0.82382c-3.57319,0 -6.60663,-0.3236 -9.10033,-0.97204c-2.4937,-0.6472 -4.51558,-1.71311 -6.06689,-3.19524c-1.55131,-1.49202 -2.6802,-3.46079 -3.38669,-5.90509c-0.69784,-2.45417 -1.04614,-5.49256 -1.04614,-9.11515c0,-1.49202 0.05929,-2.9791 0.17662,-4.46124c0.24579,-2.61227 0.91893,-5.13438 2.01818,-7.57002c1.10913,-2.43441 2.5184,-4.59463 4.22657,-6.47942c1.70816,-1.89467 3.6757,-3.41139 5.90509,-4.55017c2.23803,-1.14866 4.60328,-1.72299 7.09697,-1.72299zM242.75332,310.47692c0,2.17874 0.53975,3.89185 1.61924,5.13932c1.08937,1.24623 2.90129,1.86997 5.43451,1.86997c2.41465,0 4.09317,-0.56445 5.03557,-1.69334c0.94239,-1.1289 1.41421,-2.6555 1.41421,-4.57981c0,-0.93251 -0.11363,-1.92925 -0.33966,-2.99021c-0.21491,-1.06961 -0.57309,-2.04659 -1.07455,-2.92969c-0.50022,-0.88434 -1.17336,-1.61553 -2.01694,-2.1948c-0.84482,-0.58915 -1.88973,-0.88311 -3.13719,-0.88311c-1.16842,0 -2.18368,0.25567 -3.04827,0.76577c-0.86335,0.50022 -1.58959,1.1536 -2.17874,1.95889c-0.57927,0.80406 -1.01156,1.6884 -1.29687,2.65056c-0.2742,0.96216 -0.41129,1.92431 -0.41129,2.88647zM242.75332,310.47692" fill="none" stroke="#cf8560" stroke-width="34.33738" stroke-miterlimit="4"/><path d="M40.81259,302.04039c0,-0.24332 -0.1124,-0.43476 -0.33595,-0.57309c-0.22109,-0.1408 -0.48293,-0.24208 -0.78553,-0.30137c-0.30013,-0.06176 -0.61138,-0.10375 -0.93375,-0.12351c-0.31989,-0.01976 -0.56074,-0.02964 -0.72131,-0.02964c-1.0869,0 -2.1738,0.06176 -3.2607,0.1828c-1.08443,0.11857 -2.16886,0.17786 -3.25576,0.17786c-0.92263,0 -1.82674,-0.10993 -2.71231,-0.33101c-0.88681,-0.21985 -1.68223,-0.56074 -2.38624,-1.02268c-0.70155,-0.4644 -1.26352,-1.06837 -1.6847,-1.81315c-0.42117,-0.74354 -0.63238,-1.63776 -0.63238,-2.68267c0,-1.00415 0.20132,-1.91813 0.60274,-2.74196c0.40141,-0.82629 0.94363,-1.54142 1.62541,-2.14416c0.68425,-0.60274 1.46855,-1.06343 2.35166,-1.38333c0.88558,-0.32237 1.81068,-0.48417 2.77654,-0.48417c1.40927,0 2.79754,0.1408 4.16481,0.41994c1.36604,0.28037 2.75307,0.41994 4.15987,0.41994c1.8502,0 3.67076,-0.15933 5.45921,-0.47922c1.78845,-0.32237 3.58801,-0.48417 5.39993,-0.48417c1.12643,0 2.1911,0.10128 3.19648,0.30137c1.00415,0.20132 1.89837,0.54345 2.68267,1.02762c0.78306,0.4817 1.40556,1.14495 1.86749,1.99101c0.4644,0.84358 0.69661,1.90949 0.69661,3.19648c0,1.245 -0.2112,2.32078 -0.63238,3.22612c-0.42241,0.90657 -0.95598,1.75139 -1.60071,2.53446c-0.64226,0.7843 -1.32651,1.5686 -2.05029,2.35166c-0.72501,0.7843 -1.40803,1.67852 -2.05029,2.68267c-0.64226,1.00538 -1.17583,2.19233 -1.60071,3.56207c-0.42241,1.36727 -0.63238,3.03591 -0.63238,5.00469c0,0.92634 0.02964,1.84156 0.08893,2.7469c0.06176,0.90287 0.09387,1.81686 0.09387,2.74196c0,1.4068 -0.14204,2.73455 -0.42488,3.98201c-0.28037,1.245 -0.82259,2.45047 -1.62541,3.61642c-0.40265,0.60274 -0.93622,1.21782 -1.60071,1.84279c-0.66202,0.6225 -1.37592,1.19559 -2.13922,1.71928c-0.76454,0.52122 -1.55995,0.95227 -2.38624,1.2944c-0.82382,0.34213 -1.59577,0.51381 -2.31708,0.51381c-1.32775,0 -2.57645,-0.2322 -3.74487,-0.69661c-1.16595,-0.4607 -2.17133,-1.10296 -3.01368,-1.92678c-0.84358,-0.82629 -1.50684,-1.81315 -1.99101,-2.95934c-0.48169,-1.14619 -0.72131,-2.4023 -0.72131,-3.76957c0,-2.29237 0.52122,-4.51311 1.56613,-6.66468c1.04738,-2.15034 2.20345,-4.14999 3.4682,-5.99772c1.26723,-1.8502 2.4233,-3.52996 3.4682,-5.03927c1.04738,-1.50808 1.57107,-2.80371 1.57107,-3.88814zM40.81259,302.04039" fill="#dfd992" stroke="none" stroke-width="1" stroke-miterlimit="10"/><path d="M75.48996,288.52822c2.41342,0 4.87747,0.25196 7.39093,0.75589c2.51222,0.50146 4.79348,1.30428 6.84254,2.41095c2.05153,1.10419 3.71152,2.53199 4.97999,4.28338c1.26723,1.74892 1.84032,3.84862 1.71928,6.29909c-0.03952,1.32775 -0.29149,2.47394 -0.75589,3.43856c-0.46193,0.96586 -0.96339,1.79092 -1.50684,2.47517c-0.54345,0.68178 -1.02638,1.25488 -1.44756,1.71928c-0.42241,0.46193 -0.63238,0.87323 -0.63238,1.23512c0,0.3236 0.40141,0.67561 1.20547,1.05726c0.80282,0.38289 1.69705,0.89422 2.68267,1.53648c0.98809,0.64226 1.88355,1.46732 2.68761,2.47517c0.80283,1.00538 1.20547,2.27138 1.20547,3.79922c0,2.53322 -0.72501,4.64403 -2.1738,6.33367c-1.44632,1.68964 -3.35704,3.04703 -5.73094,4.07094c-2.37142,1.02515 -5.08621,1.75757 -8.14188,2.19851c-3.05691,0.44464 -6.21387,0.66696 -9.47087,0.66696c-1.04491,0 -2.36031,-0.1124 -3.94743,-0.33595c-1.58836,-0.22109 -3.12608,-0.6225 -4.61439,-1.20547c-1.48955,-0.58297 -2.76666,-1.36604 -3.8338,-2.35166c-1.06467,-0.98439 -1.59577,-2.22074 -1.59577,-3.71029c0,-1.44509 0.20009,-2.76172 0.60274,-3.94743c0.40141,-1.18571 0.85223,-2.44182 1.35369,-3.76957c0.50393,-1.32651 0.95598,-2.84571 1.35863,-4.55511c0.40512,-1.7094 0.60768,-3.81033 0.60768,-6.30403c0,-1.44509 -0.12228,-2.7716 -0.36559,-3.97707c-0.24085,-1.20794 -0.51257,-2.30473 -0.81518,-3.29035c-0.30013,-0.98439 -0.58174,-1.90825 -0.84482,-2.7716c-0.26061,-0.86582 -0.3903,-1.70075 -0.3903,-2.50481c0,-0.72378 0.27173,-1.44879 0.81518,-2.1738c0.54345,-0.72378 1.37839,-1.37839 2.50481,-1.96136c1.12643,-0.58297 2.54187,-1.04367 4.2488,-1.38333c1.7094,-0.34213 3.73005,-0.51381 6.06195,-0.51381zM79.3534,298.83897c-0.60274,0 -1.11654,0.13216 -1.54142,0.39524c-0.42241,0.26061 -0.7633,0.57186 -1.02268,0.93375c-0.26061,0.36312 -0.44217,0.73489 -0.54345,1.11654c-0.09881,0.38289 -0.14821,0.7139 -0.14821,0.99303c0,1.36727 0.20009,2.40353 0.60274,3.10755c0.40141,0.70525 1.08443,1.05726 2.05029,1.05726c0.44094,0 0.9214,-0.09016 1.44261,-0.27173c0.52369,-0.18033 0.9955,-0.45205 1.41791,-0.81518c0.42488,-0.36189 0.77689,-0.81518 1.05726,-1.35863c0.28284,-0.54345 0.42488,-1.17583 0.42488,-1.89714c0,-0.44464 -0.1124,-0.85717 -0.33595,-1.24006c-0.22109,-0.38165 -0.51257,-0.72254 -0.87446,-1.02268c-0.35942,-0.3026 -0.76083,-0.54469 -1.20547,-0.72625c-0.44217,-0.18033 -0.88311,-0.27173 -1.32404,-0.27173zM76.33477,317.05939c0,0.92263 0.11981,1.59577 0.36065,2.02065c0.24332,0.42241 0.50516,0.63238 0.78553,0.63238c0.36189,0 0.82506,-0.01976 1.38827,-0.05929c0.56321,-0.04199 1.11654,-0.14327 1.66,-0.30137c0.54345,-0.16056 1.00538,-0.39153 1.38827,-0.69166c0.38165,-0.3026 0.57309,-0.69661 0.57309,-1.18077c0,-0.64226 -0.18156,-1.16348 -0.54345,-1.56613c-0.36312,-0.40512 -0.79541,-0.72748 -1.29934,-0.96833c-0.50146,-0.23961 -1.04244,-0.40018 -1.62541,-0.47922c-0.58297,-0.08152 -1.11654,-0.12351 -1.60071,-0.12351c-0.48169,0 -0.77318,0.13216 -0.87446,0.39524c-0.09881,0.26061 -0.17045,1.03503 -0.21244,2.32202zM76.33477,317.05939" fill="#dfd992" stroke="none" stroke-width="1" stroke-miterlimit="10"/><path d="M120.97097,288.58751c1.36604,0 2.863,0.08152 4.49088,0.24208c1.63035,0.1618 3.17795,0.45329 4.64403,0.87446c1.46855,0.42241 2.73455,1.00538 3.79922,1.74892c1.06714,0.74477 1.70075,1.67976 1.90208,2.80618c0.20009,1.04491 0.32113,2.29114 0.36065,3.73993c0.04199,1.44632 0.26431,3.13472 0.66696,5.06397c0.27914,1.45003 0.78183,2.78642 1.50684,4.01166c0.72378,1.22523 1.45867,2.45294 2.20345,3.68064c0.74354,1.22523 1.39568,2.50234 1.95642,3.82886c0.56321,1.32775 0.84482,2.79507 0.84482,4.40195c0,1.97001 -0.18156,3.78933 -0.54345,5.45921c-0.35942,1.66988 -0.98192,3.08779 -1.86749,4.25374c-0.88681,1.16595 -2.04288,2.0824 -3.4682,2.7469c-1.42656,0.66202 -3.22612,0.99303 -5.39993,0.99303c-1.20547,0 -2.2615,-0.20132 -3.16684,-0.60274c-0.90287,-0.40141 -1.65753,-0.92387 -2.26273,-1.56613c-0.60274,-0.64473 -1.04614,-1.36974 -1.32898,-2.1738c-0.28037,-0.80282 -0.41994,-1.60812 -0.41994,-2.41589c0,-0.44094 0.02964,-0.9214 0.08893,-1.44261c0.06176,-0.52369 0.03211,-1.01526 -0.08893,-1.4772c-0.11857,-0.4644 -0.3693,-0.85593 -0.75095,-1.17583c-0.38289,-0.32237 -0.99674,-0.48417 -1.84279,-0.48417c-1.72916,0 -2.84571,0.30137 -3.34963,0.9041c-0.50146,0.60274 -0.75095,1.34628 -0.75095,2.22815c0,1.2487 -0.18156,2.40601 -0.54345,3.47314c-0.36312,1.06467 -0.8547,1.97866 -1.4772,2.74196c-0.6225,0.76454 -1.35739,1.36727 -2.20345,1.80821c-0.84358,0.44464 -1.72793,0.66696 -2.65303,0.66696c-3.49785,0 -6.16323,-0.7139 -7.99367,-2.13922c-1.82797,-1.42903 -2.74196,-3.87332 -2.74196,-7.33165c0,-0.88558 0.18033,-1.77116 0.54345,-2.65797l0.1828,-0.23714c0.44094,-0.9251 0.93375,-1.92925 1.4772,-3.01368c0.54345,-1.0869 1.07455,-2.18368 1.59577,-3.29035c0.52369,-1.10666 1.00538,-2.22321 1.44756,-3.34963c0.44464,-1.12643 0.80653,-2.17133 1.0869,-3.13719c0.36189,-1.32651 0.6435,-2.57398 0.84482,-3.73993c0.20009,-1.16595 0.39153,-2.30967 0.57309,-3.43362c0.18033,-1.12643 0.40141,-2.26273 0.66202,-3.40892c0.26308,-1.14619 0.65461,-2.34301 1.17583,-3.59172c0.44464,-1.0832 1.05849,-1.95642 1.84279,-2.61844c0.78306,-0.66449 1.66741,-1.16842 2.65303,-1.51178c0.98439,-0.34213 2.01818,-0.57309 3.10261,-0.69166c1.0869,-0.12104 2.15404,-0.1828 3.20142,-0.1828zM119.52341,312.17328c0,0.11857 0.12969,0.21985 0.3903,0.30137c0.26308,0.07905 0.55457,0.15068 0.87446,0.21244c0.32237,0.05929 0.6435,0.10869 0.96339,0.14821c0.32237,0.03952 0.54469,0.05929 0.66696,0.05929c0.44094,0 0.98315,-0.03952 1.62541,-0.11857c0.64473,-0.08152 1.04861,-0.3236 1.21041,-0.72625c0.11857,-0.23961 0.15809,-0.63238 0.11857,-1.17583c-0.03952,-0.54345 -0.0914,-1.13631 -0.15315,-1.77857c-0.05929,-0.64226 -0.13092,-1.30428 -0.21244,-1.98607c-0.07905,-0.68425 -0.11857,-1.30922 -0.11857,-1.87244c0,-1.28699 -0.20132,-2.20345 -0.60274,-2.7469c-0.40265,-0.54345 -0.7633,-0.81518 -1.08196,-0.81518c-0.20132,0 -0.44341,0.07164 -0.72625,0.21244c-0.28037,0.14204 -0.56198,0.35448 -0.84482,0.63732c-0.28037,0.28037 -0.51134,0.64103 -0.69166,1.08196c-0.18156,0.44217 -0.27173,0.96339 -0.27173,1.56613c0,0.52369 -0.07164,1.1289 -0.21244,1.81315c-0.14204,0.68178 -0.28408,1.36604 -0.42488,2.05029c-0.13833,0.68178 -0.26926,1.30428 -0.3903,1.86749c-0.11857,0.56321 -0.15809,0.98686 -0.11857,1.2697zM119.52341,312.17328" fill="#dfd992" stroke="none" stroke-width="1" stroke-miterlimit="10"/><path d="M163.01016,318.38344c-0.44217,0 -0.7843,0.12228 -1.02762,0.36559c-0.24085,0.24085 -0.41253,0.54222 -0.51381,0.9041c-0.09881,0.35942 -0.15809,0.74107 -0.17786,1.14619c-0.01976,0.40265 -0.02964,0.78306 -0.02964,1.14125c0,0.96586 0.06917,1.9206 0.2075,2.86547c0.1408,0.9461 0.21244,1.88108 0.21244,2.80618c0,2.05276 -0.56321,3.55096 -1.68964,4.49582c-1.12396,0.94486 -2.67155,1.41791 -4.64403,1.41791c-1.36727,0 -2.63327,-0.2322 -3.79922,-0.69661c-1.16595,-0.46193 -2.17257,-1.10296 -3.01862,-1.92678c-0.84358,-0.82629 -1.50684,-1.81315 -1.99101,-2.95934c-0.48169,-1.14619 -0.72131,-2.4023 -0.72131,-3.76957c0,-0.64226 0.06052,-1.26476 0.1828,-1.86749c0.16056,-1.16595 0.40141,-2.28002 0.72131,-3.34469c0.32237,-1.06714 0.64473,-2.15404 0.96833,-3.26071c0.32237,-1.10666 0.60397,-2.23309 0.84482,-3.37928c0.23961,-1.14619 0.36065,-2.36278 0.36065,-3.651c0,-1.28452 -0.14204,-2.45788 -0.42488,-3.52255c-0.28037,-1.06714 -0.58174,-2.11205 -0.9041,-3.13719c-0.31989,-1.02762 -0.62126,-2.07252 -0.9041,-3.13719c-0.28037,-1.06714 -0.41994,-2.22321 -0.41994,-3.4682c0,-1.48831 0.29149,-2.69502 0.87446,-3.62136c0.58297,-0.9251 1.33639,-1.63776 2.26273,-2.13922c0.9251,-0.50393 1.93913,-0.84605 3.04332,-1.02762c1.10666,-0.18033 2.20345,-0.27173 3.29035,-0.27173c1.00415,0 1.88849,0.2112 2.65303,0.63238c0.7633,0.42241 1.41791,0.98562 1.96136,1.68964c0.54345,0.70525 0.95474,1.52043 1.23512,2.44553c0.27914,0.92263 0.41994,1.86626 0.41994,2.83088c0,0.80777 -0.1618,1.69334 -0.48417,2.65797c-0.31989,0.96586 -0.47922,1.8502 -0.47922,2.65303c0,0.40265 0.13957,0.9041 0.41994,1.50684c0.28284,0.60274 0.72625,0.9041 1.32898,0.9041c0.7633,0 1.50808,-0.20997 2.23309,-0.63238c0.72378,-0.42117 1.35616,-0.98439 1.89714,-1.68964c0.54345,-0.70402 0.97574,-1.50808 1.29934,-2.41095c0.32237,-0.90534 0.48417,-1.82056 0.48417,-2.7469c0,-1.245 0.11981,-2.48011 0.36065,-3.70535c0.23961,-1.22771 0.63238,-2.32449 1.17583,-3.29035c0.54345,-0.96463 1.24623,-1.74892 2.10958,-2.35166c0.86582,-0.60274 1.92184,-0.9041 3.16684,-0.9041c1.16595,0 2.27014,0.19144 3.31505,0.57309c1.04738,0.38289 1.9626,0.92634 2.7469,1.63035c0.78306,0.70155 1.40556,1.55501 1.86749,2.55916c0.4644,1.00538 0.69661,2.11205 0.69661,3.31999c0,1.245 -0.28161,2.39118 -0.84482,3.43856c-0.56321,1.04491 -1.25735,2.01941 -2.07993,2.92475c-0.82382,0.90287 -1.71805,1.76745 -2.68267,2.59374c-0.96586,0.82382 -1.86132,1.63776 -2.68761,2.44059c-0.82382,0.80406 -1.51672,1.61924 -2.07993,2.44553c-0.56321,0.82382 -0.84482,1.67852 -0.84482,2.5641c0,0.68178 0.39153,1.32404 1.17583,1.92678c0.78306,0.60274 1.71928,1.19559 2.80618,1.77857c1.0869,0.58297 2.17133,1.1783 3.25576,1.78351c1.0869,0.60274 1.93172,1.26476 2.53446,1.98607c0.88558,1.0869 1.63035,2.31461 2.23309,3.68064c0.60274,1.36727 0.9041,2.75554 0.9041,4.16481c0,0.92263 -0.1618,1.80697 -0.48417,2.65303c-0.31989,0.84358 -0.84235,1.57848 -1.56613,2.20345c-0.72501,0.6225 -1.66,1.11531 -2.80618,1.4772c-1.14619,0.35818 -2.5431,0.53851 -4.18951,0.53851c-1.61059,0 -2.9791,-0.26061 -4.10552,-0.78059c-1.12396,-0.52369 -2.0577,-1.19683 -2.80124,-2.02065c-0.74477,-0.82629 -1.36851,-1.75139 -1.87244,-2.77654c-0.50146,-1.02391 -0.94239,-2.03794 -1.32404,-3.04332c-0.38289,-1.00785 -0.76454,-1.97248 -1.14619,-2.89511c-0.38289,-0.9251 -0.83494,-1.66988 -1.35863,-2.23309c-0.24085,-0.28284 -0.46193,-0.43476 -0.66202,-0.45452c-0.20132,-0.01976 -0.36312,-0.02964 -0.48417,-0.02964zM163.01016,318.38344" fill="#dfd992" stroke="none" stroke-width="1" stroke-miterlimit="10"/><path d="M209.87637,317.7807c0,-1.245 -0.49281,-2.27879 -1.4772,-3.10261c-0.98562,-0.82629 -2.22197,-1.57107 -3.71029,-2.23309c-1.48955,-0.66449 -3.09767,-1.34875 -4.82683,-2.05029c-1.72916,-0.70402 -3.33852,-1.58836 -4.82683,-2.65303c-1.48584,-1.06714 -2.72219,-2.37389 -3.71029,-3.92273c-0.98562,-1.5476 -1.4772,-3.50896 -1.4772,-5.88409c0,-1.72916 0.55333,-3.21624 1.66,-4.46124c1.10666,-1.24747 2.45294,-2.26397 4.0413,-3.04827c1.58712,-0.78306 3.27553,-1.35616 5.06397,-1.71928c1.79092,-0.36189 3.37063,-0.54345 4.7379,-0.54345c2.21333,0 4.47606,0.18156 6.78819,0.54345c2.31214,0.36312 4.40195,0.97698 6.26945,1.84279c1.86997,0.86335 3.39904,2.02929 4.58475,3.49785c1.18571,1.46608 1.77857,3.32493 1.77857,5.57778c0,0.60274 -0.06176,1.27711 -0.1828,2.02065c-0.11857,0.74477 -0.32978,1.45003 -0.63238,2.11452c-0.30013,0.66202 -0.70155,1.21535 -1.20547,1.66c-0.50146,0.44217 -1.13384,0.66202 -1.89714,0.66202c-0.44217,0 -0.96586,-0.00988 -1.57107,-0.02964c-0.60274,-0.02223 -1.17583,-0.12475 -1.71928,-0.30631c-0.54098,-0.18033 -0.9918,-0.46193 -1.35369,-0.84482c-0.36312,-0.38165 -0.54345,-0.93375 -0.54345,-1.65505c0,-1.40927 -0.48293,-2.37389 -1.44756,-2.89511c-0.96586,-0.52369 -2.17257,-0.78553 -3.62136,-0.78553c-1.08443,0 -1.84773,0.20132 -2.29237,0.60274c-0.44217,0.40265 -0.66202,0.9041 -0.66202,1.50684c0,0.12228 0.01976,0.24455 0.05929,0.36559c0.04199,0.11857 0.08399,0.21985 0.12351,0.30137c0.56321,1.12395 1.45744,2.11822 2.68267,2.98404c1.22523,0.86335 2.60115,1.6884 4.13023,2.47517c1.52784,0.7843 3.0952,1.5686 4.70332,2.35166c1.61059,0.7843 3.07914,1.67852 4.40689,2.68267c1.32651,1.00538 2.42206,2.15157 3.28541,3.43856c0.86582,1.28823 1.29934,2.81606 1.29934,4.58475c0,2.41095 -0.68425,4.46124 -2.05029,6.15088c-1.36727,1.68964 -3.07667,3.07791 -5.1282,4.16481c-2.05276,1.0832 -4.24386,1.87491 -6.57576,2.37636c-2.3319,0.50393 -4.46371,0.75589 -6.39296,0.75589c-1.32775,0 -2.70614,-0.02964 -4.13517,-0.08893c-1.42656,-0.05929 -2.83335,-0.22109 -4.21915,-0.48417c-1.38703,-0.26061 -2.7049,-0.64226 -3.95237,-1.14619c-1.245,-0.50022 -2.39118,-1.19312 -3.43856,-2.07993c-0.72131,-0.60274 -1.37345,-1.35492 -1.95642,-2.25779c-0.58297,-0.90534 -1.0869,-1.86008 -1.51178,-2.86547c-0.42241,-1.00785 -0.74354,-2.05276 -0.96339,-3.13719c-0.22109,-1.0869 -0.33101,-2.11205 -0.33101,-3.07791c0,-1.81068 0.58297,-3.278 1.74892,-4.40195c1.16595,-1.12643 2.65303,-1.68964 4.46124,-1.68964c1.97248,0 3.71152,0.37301 5.21713,1.11654c1.50808,0.74107 2.80618,1.63529 3.89308,2.68267c0.72378,0.72501 1.30675,1.27834 1.74892,1.66c0.44094,0.38289 0.83247,0.66449 1.17583,0.84482c0.34213,0.18156 0.66326,0.29149 0.96339,0.33101c0.3026,0.03952 0.63485,0.05929 0.99797,0.05929c0.44094,0 0.88187,-0.12969 1.32404,-0.3903c0.44464,-0.26308 0.66696,-0.79665 0.66696,-1.60071zM209.87637,317.7807" fill="#dfd992" stroke="none" stroke-width="1" stroke-miterlimit="10"/><path d="M249.86628,289.19025c2.89511,0 5.49873,0.75466 7.81087,2.26273c2.31214,1.50931 4.26115,3.52996 5.84951,6.06195c1.58712,2.53322 2.81236,5.46909 3.6757,8.80884c0.86582,3.33728 1.29934,6.85489 1.29934,10.55283c0,3.09643 -0.36312,5.6803 -1.0869,7.75159c-0.72131,2.07252 -1.83662,3.7424 -3.34469,5.00963c-1.50931,1.26476 -3.42868,2.16763 -5.76058,2.70737c-2.3319,0.54345 -5.08744,0.81518 -8.26539,0.81518c-3.57689,0 -6.61281,-0.32113 -9.10527,-0.96339c-2.4937,-0.64226 -4.51435,-1.70693 -6.06195,-3.19648c-1.54884,-1.48831 -2.67526,-3.45832 -3.37928,-5.90879c-0.70525,-2.45294 -1.05726,-5.49009 -1.05726,-9.11021c0,-1.48831 0.06052,-2.97663 0.1828,-4.46618c0.23961,-2.61103 0.91399,-5.13314 2.02065,-7.56385c1.10666,-2.43318 2.5147,-4.59586 4.2241,-6.48683c1.7094,-1.88973 3.67817,-3.40892 5.90879,-4.55511c2.23309,-1.14619 4.59586,-1.71928 7.08956,-1.71928zM242.74708,310.48364c0,2.17133 0.54098,3.88073 1.62541,5.1282c1.0869,1.245 2.89635,1.86749 5.42957,1.86749c2.41342,0 4.09317,-0.56321 5.03927,-1.68964c0.94486,-1.12643 1.41791,-2.65426 1.41791,-4.58475c0,-0.9251 -0.11116,-1.91937 -0.33101,-2.98404c-0.22109,-1.06714 -0.58297,-2.04165 -1.0869,-2.92475c-0.50393,-0.88558 -1.1783,-1.62047 -2.02065,-2.20345c-0.84358,-0.58297 -1.88973,-0.87446 -3.13719,-0.87446c-1.16595,0 -2.18245,0.25196 -3.04827,0.75589c-0.86335,0.50146 -1.58589,1.15483 -2.16886,1.96136c-0.58297,0.80406 -1.0165,1.6884 -1.29934,2.65303c-0.28037,0.96586 -0.41994,1.93049 -0.41994,2.89511zM242.74708,310.48364" fill="#dfd992" stroke="none" stroke-width="1" stroke-miterlimit="10"/></g></g></g></svg>